<?xml version="1.0" encoding="utf-8"?>
<!-- Generator: Adobe Illustrator 27.5.0, SVG Export Plug-In . SVG Version: 6.00 Build 0)  -->
<svg version="1.1" id="Layer_1" xmlns="http://www.w3.org/2000/svg" xmlns:xlink="http://www.w3.org/1999/xlink" x="0px" y="0px"
	 viewBox="0 0 25 25" style="enable-background:new 0 0 25 25;" xml:space="preserve">
<g>
	<linearGradient id="SVGID_1_" gradientUnits="userSpaceOnUse" x1="-2.7959" y1="-2.7615" x2="29.6127" y2="29.5743">
		<stop  offset="0" style="stop-color:#00FF00"/>
		<stop  offset="0.2654" style="stop-color:#00FF00"/>
		<stop  offset="0.7707" style="stop-color:#007600"/>
		<stop  offset="1" style="stop-color:#003C00"/>
	</linearGradient>
	<rect style="fill:url(#SVGID_1_);" width="25" height="25"/>
	<g style="opacity:0.5;">
		<g>
			<g style="opacity:0;">
				<path style="opacity:0;fill:#F2F2F2;" d="M8.569,7.373c-0.174,0-0.315,0.144-0.315,0.315V18.81c0,0.174,0.141,0.315,0.315,0.315
					H19.69c0.174,0,0.315-0.142,0.315-0.315V7.688c0-0.171-0.141-0.315-0.315-0.315H8.569z M19.69,19.756H8.569
					c-0.521,0-0.946-0.425-0.946-0.946V7.688c0-0.521,0.425-0.945,0.946-0.945H19.69c0.522,0,0.946,0.425,0.946,0.945V18.81
					C20.637,19.331,20.212,19.756,19.69,19.756z"/>
			</g>
			<path style="opacity:0.0244;fill:#EFEFEF;" d="M8.532,7.336c-0.174,0-0.315,0.144-0.315,0.314v11.123
				c0,0.173,0.141,0.315,0.315,0.315h11.122c0.173,0,0.313-0.142,0.313-0.315V7.65c0-0.171-0.141-0.314-0.313-0.314H8.532z
				 M19.654,19.72H8.532c-0.522,0-0.946-0.425-0.946-0.946V7.65c0-0.521,0.424-0.945,0.946-0.945h11.122
				c0.521,0,0.946,0.424,0.946,0.945v11.123C20.601,19.295,20.176,19.72,19.654,19.72z"/>
			<path style="opacity:0.0488;fill:#EBEBEB;" d="M8.496,7.299c-0.175,0-0.316,0.144-0.316,0.315v11.122
				c0,0.174,0.141,0.316,0.316,0.316h11.121c0.174,0,0.314-0.142,0.314-0.316V7.615c0-0.171-0.141-0.315-0.314-0.315H8.496z
				 M19.617,19.683H8.496c-0.521,0-0.947-0.425-0.947-0.946V7.615c0-0.521,0.425-0.946,0.947-0.946h11.121
				c0.521,0,0.946,0.425,0.946,0.946v11.122C20.563,19.258,20.139,19.683,19.617,19.683z"/>
			<path style="opacity:0.0732;fill:#E8E8E8;" d="M8.459,7.263c-0.174,0-0.315,0.144-0.315,0.315V18.7
				c0,0.174,0.141,0.315,0.315,0.315h11.122c0.174,0,0.314-0.142,0.314-0.315V7.578c0-0.171-0.141-0.315-0.314-0.315H8.459z
				 M19.581,19.646H8.459c-0.521,0-0.946-0.425-0.946-0.946V7.578c0-0.521,0.425-0.945,0.946-0.945h11.122
				c0.521,0,0.946,0.425,0.946,0.945V18.7C20.527,19.222,20.103,19.646,19.581,19.646z"/>
			<path style="opacity:0.0976;fill:#E4E4E4;" d="M8.422,7.226c-0.174,0-0.315,0.144-0.315,0.315v11.122
				c0,0.174,0.141,0.315,0.315,0.315h11.122c0.174,0,0.315-0.142,0.315-0.315V7.541c0-0.171-0.141-0.315-0.315-0.315H8.422z
				 M19.544,19.609H8.422c-0.521,0-0.946-0.425-0.946-0.946V7.541c0-0.521,0.425-0.945,0.946-0.945h11.122
				c0.521,0,0.946,0.425,0.946,0.945v11.122C20.49,19.185,20.065,19.609,19.544,19.609z"/>
			<path style="opacity:0.122;fill:#E1E1E1;" d="M8.387,7.19c-0.175,0-0.316,0.144-0.316,0.315v11.122
				c0,0.174,0.141,0.315,0.316,0.315h11.121c0.174,0,0.315-0.142,0.315-0.315V7.505c0-0.171-0.141-0.315-0.315-0.315H8.387z
				 M19.508,19.573H8.387c-0.522,0-0.947-0.425-0.947-0.946V7.505c0-0.521,0.425-0.945,0.947-0.945h11.121
				c0.522,0,0.946,0.425,0.946,0.945v11.122C20.454,19.148,20.029,19.573,19.508,19.573z"/>
			<path style="opacity:0.1463;fill:#DEDEDE;" d="M8.35,7.154c-0.174,0-0.315,0.144-0.315,0.315v11.122
				c0,0.174,0.141,0.316,0.315,0.316h11.122c0.174,0,0.314-0.142,0.314-0.316V7.469c0-0.171-0.141-0.315-0.314-0.315H8.35z
				 M19.472,19.537H8.35c-0.522,0-0.946-0.425-0.946-0.946V7.469c0-0.521,0.424-0.945,0.946-0.945h11.122
				c0.521,0,0.946,0.424,0.946,0.945v11.122C20.418,19.112,19.993,19.537,19.472,19.537z"/>
			<path style="opacity:0.1707;fill:#DADADA;" d="M8.313,7.117c-0.174,0-0.315,0.143-0.315,0.315v11.123
				c0,0.174,0.141,0.314,0.315,0.314h11.123c0.173,0,0.314-0.141,0.314-0.314V7.432c0-0.172-0.141-0.315-0.314-0.315H8.313z
				 M19.435,19.5H8.313c-0.521,0-0.946-0.425-0.946-0.945V7.432c0-0.521,0.425-0.946,0.946-0.946h11.123
				c0.521,0,0.945,0.425,0.945,0.946v11.123C20.381,19.075,19.956,19.5,19.435,19.5z"/>
			<path style="opacity:0.1951;fill:#D7D7D7;" d="M8.277,7.081c-0.175,0-0.316,0.143-0.316,0.315v11.121
				c0,0.175,0.141,0.315,0.316,0.315h11.121c0.175,0,0.315-0.141,0.315-0.315V7.396c0-0.172-0.141-0.315-0.315-0.315H8.277z
				 M19.397,19.463H8.277c-0.522,0-0.947-0.425-0.947-0.946V7.396c0-0.521,0.425-0.946,0.947-0.946h11.121
				c0.522,0,0.946,0.425,0.946,0.946v11.121C20.344,19.038,19.92,19.463,19.397,19.463z"/>
			<path style="opacity:0.2195;fill:#D3D3D3;" d="M8.24,7.044c-0.175,0-0.315,0.144-0.315,0.315V18.48
				c0,0.175,0.141,0.315,0.315,0.315h11.121c0.174,0,0.315-0.141,0.315-0.315V7.359c0-0.171-0.141-0.315-0.315-0.315H8.24z
				 M19.361,19.427H8.24c-0.521,0-0.946-0.425-0.946-0.946V7.359c0-0.521,0.425-0.946,0.946-0.946h11.121
				c0.523,0,0.947,0.425,0.947,0.946V18.48C20.309,19.002,19.884,19.427,19.361,19.427z"/>
			<path style="opacity:0.2439;fill:#D0D0D0;" d="M8.204,7.008c-0.175,0-0.315,0.144-0.315,0.315v11.122
				c0,0.175,0.141,0.316,0.315,0.316h11.121c0.174,0,0.314-0.141,0.314-0.316V7.323c0-0.171-0.141-0.315-0.314-0.315H8.204z
				 M19.325,19.391H8.204c-0.521,0-0.946-0.425-0.946-0.946V7.323c0-0.521,0.425-0.946,0.946-0.946h11.121
				c0.523,0,0.946,0.425,0.946,0.946v11.122C20.271,18.966,19.848,19.391,19.325,19.391z"/>
			<path style="opacity:0.2683;fill:#CCCCCC;" d="M8.167,6.971c-0.174,0-0.316,0.144-0.316,0.315v11.122
				c0,0.174,0.142,0.315,0.316,0.315h11.122c0.174,0,0.314-0.142,0.314-0.315V7.286c0-0.172-0.141-0.315-0.314-0.315H8.167z
				 M19.289,19.354H8.167c-0.522,0-0.947-0.425-0.947-0.945V7.286c0-0.521,0.425-0.946,0.947-0.946h11.122
				c0.521,0,0.946,0.425,0.946,0.946v11.122C20.235,18.929,19.81,19.354,19.289,19.354z"/>
			<path style="opacity:0.2927;fill:#C9C9C9;" d="M8.131,6.935c-0.175,0-0.316,0.143-0.316,0.314v11.122
				c0,0.174,0.142,0.315,0.316,0.315h11.121c0.174,0,0.314-0.142,0.314-0.315V7.249c0-0.171-0.141-0.314-0.314-0.314H8.131z
				 M19.252,19.316H8.131c-0.521,0-0.947-0.424-0.947-0.945V7.249c0-0.521,0.425-0.945,0.947-0.945h11.121
				c0.521,0,0.946,0.424,0.946,0.945v11.122C20.198,18.893,19.773,19.316,19.252,19.316z"/>
			<path style="opacity:0.3171;fill:#C6C6C6;" d="M8.094,6.898c-0.174,0-0.315,0.144-0.315,0.315v11.122
				c0,0.175,0.142,0.315,0.315,0.315h11.122c0.174,0,0.315-0.141,0.315-0.315V7.213c0-0.171-0.141-0.315-0.315-0.315H8.094z
				 M19.216,19.281H8.094c-0.521,0-0.946-0.425-0.946-0.946V7.213c0-0.521,0.425-0.945,0.946-0.945h11.122
				c0.522,0,0.946,0.425,0.946,0.945v11.122C20.162,18.856,19.737,19.281,19.216,19.281z"/>
			<path style="opacity:0.3415;fill:#C2C2C2;" d="M8.058,6.861c-0.174,0-0.316,0.144-0.316,0.315v11.122
				c0,0.174,0.142,0.316,0.316,0.316H19.18c0.174,0,0.314-0.142,0.314-0.316V7.177c0-0.172-0.141-0.315-0.314-0.315H8.058z
				 M19.18,19.245H8.058c-0.522,0-0.946-0.425-0.946-0.946V7.177c0-0.521,0.424-0.946,0.946-0.946H19.18
				c0.521,0,0.946,0.425,0.946,0.946v11.122C20.126,18.82,19.701,19.245,19.18,19.245z"/>
			<path style="opacity:0.3659;fill:#BFBFBF;" d="M8.021,6.825c-0.175,0-0.316,0.144-0.316,0.315v11.122
				c0,0.174,0.142,0.315,0.316,0.315h11.121c0.174,0,0.314-0.142,0.314-0.315V7.14c0-0.171-0.141-0.315-0.314-0.315H8.021z
				 M19.143,19.208H8.021c-0.521,0-0.947-0.425-0.947-0.946V7.14c0-0.521,0.425-0.945,0.947-0.945h11.121
				c0.522,0,0.946,0.424,0.946,0.945v11.122C20.089,18.783,19.664,19.208,19.143,19.208z"/>
			<path style="opacity:0.3902;fill:#BBBBBB;" d="M7.984,6.789c-0.174,0-0.315,0.143-0.315,0.315v11.121
				c0,0.175,0.141,0.316,0.315,0.316h11.121c0.174,0,0.315-0.142,0.315-0.316V7.104c0-0.172-0.142-0.315-0.315-0.315H7.984z
				 M19.105,19.171H7.984c-0.521,0-0.946-0.425-0.946-0.946V7.104c0-0.521,0.425-0.946,0.946-0.946h11.121
				c0.522,0,0.947,0.425,0.947,0.946v11.121C20.053,18.746,19.627,19.171,19.105,19.171z"/>
			<path style="opacity:0.4146;fill:#B8B8B8;" d="M7.948,6.752c-0.174,0-0.315,0.144-0.315,0.315V18.19
				c0,0.174,0.141,0.314,0.315,0.314H19.07c0.173,0,0.315-0.141,0.315-0.314V7.067c0-0.171-0.142-0.315-0.315-0.315H7.948z
				 M19.07,19.135H7.948c-0.521,0-0.946-0.425-0.946-0.945V7.067c0-0.521,0.425-0.946,0.946-0.946H19.07
				c0.522,0,0.945,0.425,0.945,0.946V18.19C20.016,18.71,19.592,19.135,19.07,19.135z"/>
			<path style="opacity:0.439;fill:#B5B5B5;" d="M7.912,6.716c-0.175,0-0.315,0.144-0.315,0.315v11.121
				c0,0.174,0.141,0.316,0.315,0.316h11.121c0.174,0,0.315-0.142,0.315-0.316V7.031c0-0.172-0.141-0.315-0.315-0.315H7.912z
				 M19.033,19.099H7.912c-0.521,0-0.946-0.425-0.946-0.946V7.031c0-0.521,0.425-0.946,0.946-0.946h11.121
				c0.522,0,0.947,0.425,0.947,0.946v11.121C19.98,18.674,19.555,19.099,19.033,19.099z"/>
			<path style="opacity:0.4634;fill:#B1B1B1;" d="M7.875,6.679c-0.174,0-0.315,0.143-0.315,0.315v11.121
				c0,0.175,0.141,0.316,0.315,0.316h11.121c0.174,0,0.315-0.142,0.315-0.316V6.994c0-0.172-0.142-0.315-0.315-0.315H7.875z
				 M18.996,19.062H7.875c-0.521,0-0.946-0.425-0.946-0.946V6.994c0-0.521,0.425-0.946,0.946-0.946h11.121
				c0.521,0,0.947,0.425,0.947,0.946v11.121C19.943,18.637,19.518,19.062,18.996,19.062z"/>
			<path style="opacity:0.4878;fill:#AEAEAE;" d="M7.839,6.643c-0.175,0-0.316,0.144-0.316,0.314v11.122
				c0,0.174,0.142,0.315,0.316,0.315H18.96c0.174,0,0.314-0.142,0.314-0.315V6.957c0-0.171-0.141-0.314-0.314-0.314H7.839z
				 M18.96,19.025H7.839c-0.522,0-0.947-0.426-0.947-0.946V6.957c0-0.521,0.425-0.946,0.947-0.946H18.96
				c0.521,0,0.946,0.424,0.946,0.946v11.122C19.906,18.6,19.481,19.025,18.96,19.025z"/>
			<path style="opacity:0.5122;fill:#AAAAAA;" d="M7.802,6.606c-0.174,0-0.316,0.143-0.316,0.315v11.122
				c0,0.174,0.142,0.315,0.316,0.315h11.122c0.174,0,0.315-0.142,0.315-0.315V6.921c0-0.172-0.141-0.315-0.315-0.315H7.802z
				 M18.924,18.988H7.802c-0.522,0-0.946-0.424-0.946-0.945V6.921c0-0.521,0.424-0.946,0.946-0.946h11.122
				c0.521,0,0.946,0.425,0.946,0.946v11.122C19.87,18.565,19.445,18.988,18.924,18.988z"/>
			<path style="opacity:0.5366;fill:#A7A7A7;" d="M7.766,6.569c-0.174,0-0.316,0.144-0.316,0.315v11.122
				c0,0.175,0.142,0.316,0.316,0.316h11.121c0.174,0,0.315-0.142,0.315-0.316V6.884c0-0.171-0.141-0.315-0.315-0.315H7.766z
				 M18.887,18.952H7.766c-0.521,0-0.946-0.425-0.946-0.946V6.884c0-0.521,0.425-0.946,0.946-0.946h11.121
				c0.521,0,0.947,0.425,0.947,0.946v11.122C19.834,18.527,19.408,18.952,18.887,18.952z"/>
			<path style="opacity:0.561;fill:#A3A3A3;" d="M7.729,6.533c-0.175,0-0.316,0.144-0.316,0.315V17.97
				c0,0.175,0.142,0.316,0.316,0.316h11.121c0.174,0,0.314-0.141,0.314-0.316V6.848c0-0.171-0.141-0.315-0.314-0.315H7.729z
				 M18.851,18.916H7.729c-0.522,0-0.947-0.425-0.947-0.946V6.848c0-0.521,0.425-0.946,0.947-0.946h11.121
				c0.522,0,0.946,0.426,0.946,0.946V17.97C19.797,18.491,19.372,18.916,18.851,18.916z"/>
			<path style="opacity:0.5854;fill:#A0A0A0;" d="M7.693,6.497c-0.175,0-0.316,0.143-0.316,0.314v11.122
				c0,0.174,0.141,0.314,0.316,0.314h11.122c0.174,0,0.314-0.141,0.314-0.314V6.812c0-0.172-0.141-0.314-0.314-0.314H7.693z
				 M18.815,18.879H7.693c-0.522,0-0.947-0.425-0.947-0.945V6.812c0-0.521,0.425-0.946,0.947-0.946h11.122
				c0.521,0,0.945,0.425,0.945,0.946v11.122C19.76,18.454,19.336,18.879,18.815,18.879z"/>
			<path style="opacity:0.6098;fill:#9D9D9D;" d="M7.656,6.46c-0.175,0-0.316,0.143-0.316,0.315v11.122
				c0,0.175,0.142,0.315,0.316,0.315h11.121c0.174,0,0.315-0.141,0.315-0.315V6.775c0-0.172-0.141-0.315-0.315-0.315H7.656z
				 M18.777,18.843H7.656c-0.521,0-0.947-0.425-0.947-0.946V6.775c0-0.521,0.425-0.946,0.947-0.946h11.121
				c0.521,0,0.946,0.424,0.946,0.946v11.122C19.724,18.418,19.299,18.843,18.777,18.843z"/>
			<path style="opacity:0.6341;fill:#999999;" d="M7.62,6.424c-0.174,0-0.316,0.143-0.316,0.314V17.86
				c0,0.175,0.142,0.315,0.316,0.315h11.122c0.174,0,0.315-0.141,0.315-0.315V6.738c0-0.171-0.141-0.314-0.315-0.314H7.62z
				 M18.741,18.806H7.62c-0.521,0-0.946-0.425-0.946-0.945V6.738c0-0.521,0.425-0.946,0.946-0.946h11.122
				c0.521,0,0.946,0.425,0.946,0.946V17.86C19.688,18.381,19.263,18.806,18.741,18.806z"/>
			<path style="opacity:0.6585;fill:#969696;" d="M7.583,6.387c-0.174,0-0.315,0.144-0.315,0.315v11.121
				c0,0.175,0.142,0.316,0.315,0.316h11.121c0.175,0,0.315-0.142,0.315-0.316V6.702c0-0.172-0.14-0.315-0.315-0.315H7.583z
				 M18.704,18.77H7.583c-0.521,0-0.946-0.425-0.946-0.946V6.702c0-0.521,0.425-0.946,0.946-0.946h11.121
				c0.523,0,0.946,0.425,0.946,0.946v11.121C19.65,18.345,19.227,18.77,18.704,18.77z"/>
			<path style="opacity:0.6829;fill:#929292;" d="M7.547,6.351c-0.175,0-0.316,0.143-0.316,0.315v11.122
				c0,0.175,0.142,0.315,0.316,0.315h11.121c0.174,0,0.314-0.141,0.314-0.315V6.666c0-0.172-0.141-0.315-0.314-0.315H7.547z
				 M18.668,18.732H7.547c-0.522,0-0.947-0.424-0.947-0.945V6.666c0-0.521,0.425-0.947,0.947-0.947h11.121
				c0.522,0,0.946,0.425,0.946,0.947v11.122C19.614,18.309,19.19,18.732,18.668,18.732z"/>
			<path style="opacity:0.7073;fill:#8F8F8F;" d="M7.51,6.314c-0.174,0-0.316,0.143-0.316,0.315v11.122
				c0,0.174,0.142,0.315,0.316,0.315h11.122c0.174,0,0.315-0.142,0.315-0.315V6.629c0-0.172-0.141-0.315-0.315-0.315H7.51z
				 M18.632,18.696H7.51c-0.522,0-0.947-0.425-0.947-0.945V6.629c0-0.521,0.425-0.946,0.947-0.946h11.122
				c0.521,0,0.946,0.425,0.946,0.946v11.122C19.578,18.271,19.152,18.696,18.632,18.696z"/>
			<path style="opacity:0.7317;fill:#8C8C8C;" d="M7.474,6.277c-0.175,0-0.316,0.144-0.316,0.315v11.122
				c0,0.175,0.141,0.315,0.316,0.315h11.121c0.174,0,0.316-0.141,0.316-0.315V6.592c0-0.171-0.142-0.315-0.316-0.315H7.474z
				 M18.595,18.66H7.474c-0.521,0-0.946-0.426-0.946-0.946V6.592c0-0.521,0.425-0.946,0.946-0.946h11.121
				c0.521,0,0.946,0.424,0.946,0.946v11.122C19.541,18.234,19.116,18.66,18.595,18.66z"/>
			<path style="opacity:0.7561;fill:#888888;" d="M7.438,6.241c-0.175,0-0.316,0.143-0.316,0.314v11.122
				c0,0.175,0.142,0.316,0.316,0.316h11.121c0.174,0,0.314-0.141,0.314-0.316V6.556c0-0.171-0.141-0.314-0.314-0.314H7.438z
				 M18.559,18.623H7.438c-0.522,0-0.947-0.425-0.947-0.945V6.556c0-0.521,0.425-0.946,0.947-0.946h11.121
				c0.521,0,0.946,0.425,0.946,0.946v11.122C19.505,18.198,19.08,18.623,18.559,18.623z"/>
			<path style="opacity:0.7805;fill:#858585;" d="M7.401,6.205c-0.175,0-0.316,0.143-0.316,0.315v11.121
				c0,0.176,0.141,0.316,0.316,0.316h11.121c0.174,0,0.314-0.14,0.314-0.316V6.52c0-0.172-0.141-0.315-0.314-0.315H7.401z
				 M18.521,18.587H7.401c-0.522,0-0.947-0.425-0.947-0.946V6.52c0-0.521,0.425-0.946,0.947-0.946h11.121
				c0.522,0,0.947,0.425,0.947,0.946v11.121C19.469,18.162,19.044,18.587,18.521,18.587z"/>
			<path style="opacity:0.8049;fill:#818181;" d="M7.364,6.168c-0.175,0-0.316,0.144-0.316,0.315v11.122
				c0,0.175,0.142,0.315,0.316,0.315h11.121c0.174,0,0.314-0.141,0.314-0.315V6.483c0-0.171-0.141-0.315-0.314-0.315H7.364z
				 M18.485,18.55H7.364c-0.522,0-0.947-0.425-0.947-0.945V6.483c0-0.521,0.425-0.947,0.947-0.947h11.121
				c0.521,0,0.946,0.425,0.946,0.947v11.122C19.432,18.125,19.007,18.55,18.485,18.55z"/>
			<path style="opacity:0.8293;fill:#7E7E7E;" d="M7.328,6.131c-0.175,0-0.317,0.143-0.317,0.315v11.122
				c0,0.175,0.142,0.315,0.317,0.315h11.121c0.174,0,0.315-0.141,0.315-0.315V6.446c0-0.172-0.141-0.315-0.315-0.315H7.328z
				 M18.449,18.514H7.328c-0.522,0-0.947-0.425-0.947-0.945V6.446c0-0.521,0.424-0.946,0.947-0.946h11.121
				c0.521,0,0.946,0.425,0.946,0.946v11.122C19.396,18.089,18.971,18.514,18.449,18.514z"/>
			<path style="opacity:0.8537;fill:#7A7A7A;" d="M7.292,6.095c-0.175,0-0.317,0.144-0.317,0.315v11.122
				c0,0.174,0.142,0.315,0.317,0.315h11.122c0.173,0,0.314-0.141,0.314-0.315V6.41c0-0.172-0.141-0.315-0.314-0.315H7.292z
				 M18.413,18.477H7.292c-0.522,0-0.947-0.424-0.947-0.944V6.41c0-0.522,0.425-0.947,0.947-0.947h11.122
				c0.521,0,0.945,0.425,0.945,0.947v11.122C19.358,18.053,18.934,18.477,18.413,18.477z"/>
			<path style="opacity:0.878;fill:#777777;" d="M7.254,6.059c-0.174,0-0.316,0.143-0.316,0.315v11.122
				c0,0.175,0.142,0.315,0.316,0.315h11.122c0.174,0,0.314-0.141,0.314-0.315V6.374c0-0.172-0.141-0.315-0.314-0.315H7.254z
				 M18.376,18.44H7.254c-0.521,0-0.946-0.425-0.946-0.945V6.374c0-0.522,0.425-0.947,0.946-0.947h11.122
				c0.521,0,0.946,0.425,0.946,0.947v11.122C19.322,18.016,18.897,18.44,18.376,18.44z"/>
			<path style="opacity:0.9024;fill:#747474;" d="M7.218,6.022c-0.175,0-0.316,0.143-0.316,0.315v11.121
				c0,0.175,0.141,0.315,0.316,0.315h11.121c0.175,0,0.315-0.141,0.315-0.315V6.337c0-0.172-0.141-0.315-0.315-0.315H7.218z
				 M18.339,18.403H7.218c-0.522,0-0.947-0.425-0.947-0.945V6.337c0-0.521,0.425-0.946,0.947-0.946h11.121
				c0.522,0,0.946,0.425,0.946,0.946v11.121C19.285,17.979,18.861,18.403,18.339,18.403z"/>
			<path style="opacity:0.9268;fill:#707070;" d="M7.182,5.986c-0.175,0-0.316,0.143-0.316,0.314v11.122
				c0,0.175,0.141,0.315,0.316,0.315h11.121c0.174,0,0.315-0.141,0.315-0.315V6.3c0-0.172-0.141-0.314-0.315-0.314H7.182z
				 M18.303,18.367H7.182c-0.521,0-0.947-0.425-0.947-0.945V6.3c0-0.521,0.425-0.947,0.947-0.947h11.121
				c0.521,0,0.946,0.425,0.946,0.947v11.122C19.249,17.942,18.824,18.367,18.303,18.367z"/>
			<path style="opacity:0.9512;fill:#6D6D6D;" d="M7.145,5.949c-0.174,0-0.316,0.143-0.316,0.314v11.122
				c0,0.175,0.142,0.316,0.316,0.316h11.122c0.174,0,0.315-0.141,0.315-0.316V6.264c0-0.172-0.141-0.314-0.315-0.314H7.145z
				 M18.267,18.331H7.145c-0.522,0-0.946-0.425-0.946-0.945V6.264c0-0.522,0.424-0.946,0.946-0.946h11.122
				c0.521,0,0.946,0.424,0.946,0.946v11.122C19.213,17.906,18.788,18.331,18.267,18.331z"/>
			<path style="opacity:0.9756;fill:#696969;" d="M7.109,5.913c-0.175,0-0.316,0.143-0.316,0.315V17.35
				c0,0.174,0.142,0.315,0.316,0.315H18.23c0.173,0,0.313-0.141,0.313-0.315V6.228c0-0.172-0.141-0.315-0.313-0.315H7.109z
				 M18.23,18.294H7.109c-0.522,0-0.947-0.424-0.947-0.944V6.228c0-0.522,0.425-0.947,0.947-0.947H18.23
				c0.522,0,0.945,0.425,0.945,0.947V17.35C19.176,17.87,18.752,18.294,18.23,18.294z"/>
			<path style="fill:#666666;" d="M7.072,5.876c-0.175,0-0.316,0.143-0.316,0.315v11.122c0,0.175,0.142,0.315,0.316,0.315h11.121
				c0.174,0,0.314-0.141,0.314-0.315V6.191c0-0.172-0.141-0.315-0.314-0.315H7.072z M18.193,18.258H7.072
				c-0.522,0-0.947-0.425-0.947-0.945V6.191c0-0.522,0.425-0.947,0.947-0.947h11.121c0.521,0,0.946,0.425,0.946,0.947v11.122
				C19.14,17.833,18.715,18.258,18.193,18.258z"/>
		</g>
	</g>
	<g>
		<path style="fill:#FFFFFF;" d="M18.193,18.258H7.072c-0.522,0-0.947-0.425-0.947-0.945V6.191c0-0.522,0.425-0.947,0.947-0.947
			h11.121c0.521,0,0.946,0.425,0.946,0.947v11.122C19.14,17.833,18.715,18.258,18.193,18.258z M7.072,5.876
			c-0.175,0-0.316,0.143-0.316,0.315v11.122c0,0.175,0.142,0.315,0.316,0.315h11.121c0.174,0,0.314-0.141,0.314-0.315V6.191
			c0-0.172-0.141-0.315-0.314-0.315H7.072z"/>
	</g>
	<g>
		<g style="opacity:0.5;">
			<g style="opacity:0;">
				<path style="opacity:0;fill:#FFFFFF;" d="M10.548,12.026c-0.194,0-0.347,0.156-0.347,0.35v1.683
					c0,0.189,0.153,0.346,0.347,0.346c0.194,0,0.347-0.156,0.347-0.346v-1.683C10.896,12.182,10.743,12.026,10.548,12.026z"/>
				<path style="opacity:0;fill:#FFFFFF;" d="M16.011,12.026c-0.191,0-0.348,0.156-0.348,0.35v1.683
					c0,0.189,0.156,0.346,0.348,0.346c0.191,0,0.35-0.156,0.35-0.346v-1.683C16.36,12.182,16.201,12.026,16.011,12.026z"/>
				<path style="opacity:0;fill:#FFFFFF;" d="M11.21,12.026c0,0.003,0,0.013,0,0.016v3.105c0,0.289,0.232,0.523,0.521,0.523h0.559
					v0.885c0,0.191,0.158,0.346,0.349,0.346c0.192,0,0.348-0.154,0.348-0.346V15.67h0.592v0.885c0,0.191,0.159,0.346,0.352,0.346
					c0.19,0,0.347-0.154,0.347-0.346V15.67h0.561c0.287,0,0.521-0.234,0.521-0.523v-3.105c0-0.003,0-0.013-0.002-0.016H11.21z"/>
				<path style="opacity:0;fill:#FFFFFF;" d="M14.313,10.9c-0.108,0-0.196-0.088-0.196-0.197c0-0.109,0.088-0.197,0.196-0.197
					c0.107,0,0.191,0.088,0.191,0.197C14.504,10.812,14.42,10.9,14.313,10.9z M14.297,9.911l0.371-0.692l-0.076-0.043l-0.373,0.697
					c-0.283-0.146-0.599-0.225-0.934-0.225c-0.321,0-0.624,0.07-0.898,0.201L12.03,9.175l-0.076,0.043l0.36,0.67
					c-0.644,0.348-1.084,1.023-1.089,1.805h4.12C15.338,10.929,14.917,10.265,14.297,9.911z M12.222,10.9
					c-0.107,0-0.196-0.088-0.196-0.197c0-0.109,0.089-0.197,0.196-0.197c0.109,0,0.197,0.088,0.197,0.197
					C12.419,10.812,12.331,10.9,12.222,10.9z"/>
			</g>
			<g style="opacity:0.0323;">
				<path style="opacity:0.0323;fill:#FAFAFA;" d="M10.519,11.991c-0.195,0-0.347,0.156-0.347,0.35v1.684
					c0,0.189,0.152,0.346,0.347,0.346c0.194,0,0.347-0.156,0.347-0.346v-1.684C10.866,12.148,10.713,11.991,10.519,11.991z"/>
				<path style="opacity:0.0323;fill:#FAFAFA;" d="M15.981,11.991c-0.191,0-0.348,0.156-0.348,0.35v1.684
					c0,0.189,0.156,0.346,0.348,0.346c0.19,0,0.35-0.156,0.35-0.346v-1.684C16.33,12.148,16.171,11.991,15.981,11.991z"/>
				<path style="opacity:0.0323;fill:#FAFAFA;" d="M11.18,11.991c0,0.003,0,0.013,0,0.016v3.106c0,0.289,0.232,0.523,0.521,0.523
					h0.559v0.885c0,0.191,0.158,0.345,0.349,0.345c0.192,0,0.348-0.153,0.348-0.345v-0.885h0.592v0.885
					c0,0.191,0.159,0.345,0.352,0.345c0.191,0,0.347-0.153,0.347-0.345v-0.885h0.561c0.287,0,0.521-0.234,0.521-0.523v-3.106
					c0-0.002,0-0.013-0.002-0.016H11.18z"/>
				<path style="opacity:0.0323;fill:#FAFAFA;" d="M14.282,10.866c-0.108,0-0.196-0.088-0.196-0.197c0-0.11,0.088-0.197,0.196-0.197
					c0.107,0,0.191,0.087,0.191,0.197C14.474,10.778,14.39,10.866,14.282,10.866z M14.267,9.876l0.371-0.692l-0.076-0.043
					l-0.373,0.697c-0.283-0.147-0.599-0.225-0.933-0.225c-0.321,0-0.624,0.071-0.899,0.201L12,9.141l-0.076,0.043l0.36,0.67
					c-0.644,0.348-1.084,1.023-1.089,1.804h4.119C15.308,10.895,14.887,10.231,14.267,9.876z M12.191,10.866
					c-0.107,0-0.196-0.088-0.196-0.197c0-0.11,0.089-0.197,0.196-0.197c0.11,0,0.197,0.087,0.197,0.197
					C12.389,10.778,12.301,10.866,12.191,10.866z"/>
			</g>
			<g style="opacity:0.0645;">
				<path style="opacity:0.0645;fill:#F5F5F5;" d="M10.488,11.957c-0.194,0-0.347,0.156-0.347,0.35v1.683
					c0,0.189,0.153,0.346,0.347,0.346c0.195,0,0.347-0.156,0.347-0.346v-1.683C10.835,12.113,10.683,11.957,10.488,11.957z"/>
				<path style="opacity:0.0645;fill:#F5F5F5;" d="M15.95,11.957c-0.191,0-0.348,0.156-0.348,0.35v1.683
					c0,0.189,0.156,0.346,0.348,0.346c0.19,0,0.35-0.156,0.35-0.346v-1.683C16.3,12.113,16.141,11.957,15.95,11.957z"/>
				<path style="opacity:0.0645;fill:#F5F5F5;" d="M11.149,11.957c0,0.003,0,0.013,0,0.016v3.105c0,0.289,0.232,0.524,0.522,0.524
					h0.559v0.885c0,0.191,0.158,0.346,0.349,0.346c0.192,0,0.348-0.154,0.348-0.346v-0.885h0.592v0.885
					c0,0.191,0.159,0.346,0.351,0.346c0.19,0,0.347-0.154,0.347-0.346v-0.885h0.561c0.287,0,0.522-0.234,0.522-0.524v-3.105
					c0-0.003,0-0.013-0.002-0.016H11.149z"/>
				<path style="opacity:0.0645;fill:#F5F5F5;" d="M14.252,10.83c-0.108,0-0.196-0.087-0.196-0.197s0.088-0.197,0.196-0.197
					c0.107,0,0.191,0.088,0.191,0.197S14.359,10.83,14.252,10.83z M14.236,9.841l0.371-0.692l-0.076-0.043l-0.373,0.698
					c-0.283-0.146-0.599-0.225-0.934-0.225c-0.321,0-0.623,0.07-0.898,0.201l-0.358-0.674l-0.076,0.043l0.359,0.67
					c-0.644,0.348-1.084,1.023-1.089,1.805h4.12C15.277,10.86,14.856,10.195,14.236,9.841z M12.161,10.83
					c-0.107,0-0.196-0.087-0.196-0.197s0.089-0.197,0.196-0.197c0.109,0,0.197,0.088,0.197,0.197S12.271,10.83,12.161,10.83z"/>
			</g>
			<g style="opacity:0.0968;">
				<path style="opacity:0.0968;fill:#EFEFEF;" d="M10.458,11.921c-0.195,0-0.347,0.156-0.347,0.35v1.683
					c0,0.19,0.152,0.346,0.347,0.346c0.194,0,0.347-0.156,0.347-0.346v-1.683C10.805,12.078,10.651,11.921,10.458,11.921z"/>
				<path style="opacity:0.0968;fill:#EFEFEF;" d="M15.92,11.921c-0.191,0-0.348,0.156-0.348,0.35v1.683
					c0,0.19,0.156,0.346,0.348,0.346c0.19,0,0.35-0.156,0.35-0.346v-1.683C16.27,12.078,16.11,11.921,15.92,11.921z"/>
				<path style="opacity:0.0968;fill:#EFEFEF;" d="M11.119,11.921c0,0.003,0,0.013,0,0.016v3.105c0,0.289,0.232,0.523,0.521,0.523
					h0.559v0.885c0,0.192,0.158,0.346,0.349,0.346c0.192,0,0.348-0.153,0.348-0.346v-0.885h0.592v0.885
					c0,0.192,0.159,0.346,0.351,0.346c0.191,0,0.347-0.153,0.347-0.346v-0.885h0.561c0.287,0,0.522-0.234,0.522-0.523v-3.105
					c0-0.002,0-0.013-0.002-0.016H11.119z"/>
				<path style="opacity:0.0968;fill:#EFEFEF;" d="M14.222,10.795c-0.108,0-0.196-0.087-0.196-0.197
					c0-0.109,0.088-0.197,0.196-0.197c0.107,0,0.191,0.088,0.191,0.197C14.413,10.708,14.329,10.795,14.222,10.795z M14.206,9.806
					l0.371-0.692l-0.076-0.043l-0.373,0.697c-0.283-0.146-0.599-0.225-0.934-0.225c-0.321,0-0.623,0.07-0.898,0.201l-0.357-0.674
					l-0.077,0.043l0.36,0.67c-0.644,0.347-1.084,1.023-1.089,1.804h4.12C15.247,10.825,14.826,10.161,14.206,9.806z M12.131,10.795
					c-0.108,0-0.196-0.087-0.196-0.197c0-0.109,0.088-0.197,0.196-0.197c0.109,0,0.197,0.088,0.197,0.197
					C12.328,10.708,12.24,10.795,12.131,10.795z"/>
			</g>
			<g style="opacity:0.129;">
				<path style="opacity:0.129;fill:#EAEAEA;" d="M10.427,11.887c-0.194,0-0.347,0.157-0.347,0.35v1.683
					c0,0.189,0.153,0.346,0.347,0.346c0.194,0,0.348-0.156,0.348-0.346v-1.683C10.775,12.043,10.622,11.887,10.427,11.887z"/>
				<path style="opacity:0.129;fill:#EAEAEA;" d="M15.89,11.887c-0.19,0-0.348,0.157-0.348,0.35v1.683
					c0,0.189,0.157,0.346,0.348,0.346c0.19,0,0.351-0.156,0.351-0.346v-1.683C16.24,12.043,16.08,11.887,15.89,11.887z"/>
				<path style="opacity:0.129;fill:#EAEAEA;" d="M11.089,11.887c0,0.003,0,0.013,0,0.016v3.106c0,0.289,0.231,0.523,0.521,0.523
					h0.558v0.885c0,0.191,0.158,0.346,0.35,0.346c0.191,0,0.348-0.154,0.348-0.346v-0.885h0.593v0.885
					c0,0.191,0.158,0.346,0.351,0.346c0.19,0,0.347-0.154,0.347-0.346v-0.885h0.561c0.287,0,0.522-0.234,0.522-0.523v-3.106
					c0-0.003,0-0.012-0.002-0.016H11.089z"/>
				<path style="opacity:0.129;fill:#EAEAEA;" d="M14.191,10.761c-0.108,0-0.196-0.088-0.196-0.198c0-0.109,0.088-0.197,0.196-0.197
					c0.107,0,0.191,0.088,0.191,0.197C14.383,10.673,14.299,10.761,14.191,10.761z M14.176,9.771l0.371-0.692l-0.076-0.042
					l-0.372,0.697c-0.284-0.146-0.599-0.224-0.935-0.224c-0.32,0-0.623,0.07-0.898,0.201l-0.357-0.674l-0.077,0.042l0.36,0.67
					c-0.644,0.348-1.084,1.024-1.089,1.805h4.119C15.217,10.79,14.796,10.127,14.176,9.771z M12.101,10.761
					c-0.107,0-0.196-0.088-0.196-0.198c0-0.109,0.089-0.197,0.196-0.197c0.109,0,0.197,0.088,0.197,0.197
					C12.298,10.673,12.21,10.761,12.101,10.761z"/>
			</g>
			<g style="opacity:0.1613;">
				<path style="opacity:0.1613;fill:#E5E5E5;" d="M10.398,11.852c-0.194,0-0.347,0.156-0.347,0.35v1.683
					c0,0.19,0.152,0.346,0.347,0.346c0.194,0,0.347-0.155,0.347-0.346v-1.683C10.744,12.009,10.592,11.852,10.398,11.852z"/>
				<path style="opacity:0.1613;fill:#E5E5E5;" d="M15.859,11.852c-0.191,0-0.347,0.156-0.347,0.35v1.683
					c0,0.19,0.156,0.346,0.347,0.346c0.191,0,0.35-0.155,0.35-0.346v-1.683C16.209,12.009,16.051,11.852,15.859,11.852z"/>
				<path style="opacity:0.1613;fill:#E5E5E5;" d="M11.06,11.852c0,0.003,0,0.013,0,0.016v3.104c0,0.289,0.231,0.523,0.521,0.523
					h0.559v0.886c0,0.191,0.158,0.346,0.349,0.346c0.192,0,0.348-0.154,0.348-0.346v-0.886h0.593v0.886
					c0,0.191,0.158,0.346,0.352,0.346c0.19,0,0.346-0.154,0.346-0.346v-0.886h0.561c0.286,0,0.521-0.234,0.521-0.523v-3.104
					c0-0.003,0-0.013-0.002-0.016H11.06z"/>
				<path style="opacity:0.1613;fill:#E5E5E5;" d="M14.162,10.727c-0.109,0-0.196-0.088-0.196-0.197s0.087-0.197,0.196-0.197
					c0.107,0,0.19,0.088,0.19,0.197S14.269,10.727,14.162,10.727z M14.146,9.737l0.371-0.692L14.44,9.002l-0.372,0.697
					c-0.283-0.146-0.6-0.225-0.934-0.225c-0.321,0-0.624,0.07-0.898,0.201l-0.357-0.674l-0.076,0.043l0.36,0.67
					c-0.644,0.348-1.084,1.023-1.089,1.805h4.119C15.188,10.756,14.767,10.092,14.146,9.737z M12.071,10.727
					c-0.107,0-0.196-0.088-0.196-0.197s0.089-0.197,0.196-0.197c0.109,0,0.197,0.088,0.197,0.197S12.18,10.727,12.071,10.727z"/>
			</g>
			<g style="opacity:0.1935;">
				<path style="opacity:0.1935;fill:#E0E0E0;" d="M10.367,11.818c-0.194,0-0.348,0.156-0.348,0.35v1.682
					c0,0.19,0.153,0.346,0.348,0.346s0.347-0.155,0.347-0.346v-1.682C10.714,11.974,10.561,11.818,10.367,11.818z"/>
				<path style="opacity:0.1935;fill:#E0E0E0;" d="M15.829,11.818c-0.191,0-0.348,0.156-0.348,0.35v1.682
					c0,0.19,0.156,0.346,0.348,0.346c0.19,0,0.351-0.155,0.351-0.346v-1.682C16.18,11.974,16.02,11.818,15.829,11.818z"/>
				<path style="opacity:0.1935;fill:#E0E0E0;" d="M11.028,11.818c0,0.003,0,0.012,0,0.016v3.105c0,0.289,0.232,0.523,0.522,0.523
					h0.558v0.885c0,0.191,0.159,0.346,0.35,0.346c0.192,0,0.348-0.154,0.348-0.346v-0.885h0.591v0.885
					c0,0.191,0.159,0.346,0.351,0.346c0.191,0,0.348-0.154,0.348-0.346v-0.885h0.56c0.288,0,0.522-0.234,0.522-0.523v-3.105
					c0-0.003,0-0.013-0.003-0.016H11.028z"/>
				<path style="opacity:0.1935;fill:#E0E0E0;" d="M14.131,10.691c-0.108,0-0.196-0.088-0.196-0.197
					c0-0.109,0.089-0.197,0.196-0.197c0.107,0,0.191,0.088,0.191,0.197C14.322,10.604,14.238,10.691,14.131,10.691z M14.115,9.703
					l0.371-0.692L14.41,8.967l-0.372,0.698c-0.284-0.146-0.599-0.225-0.935-0.225c-0.32,0-0.623,0.07-0.897,0.201l-0.358-0.674
					L11.773,9.01l0.36,0.669c-0.644,0.348-1.084,1.023-1.089,1.805h4.119C15.156,10.721,14.735,10.057,14.115,9.703z M12.04,10.691
					c-0.107,0-0.196-0.088-0.196-0.197c0-0.109,0.089-0.197,0.196-0.197c0.109,0,0.197,0.088,0.197,0.197
					C12.237,10.604,12.149,10.691,12.04,10.691z"/>
			</g>
			<g style="opacity:0.2258;">
				<path style="opacity:0.2258;fill:#DADADA;" d="M10.336,11.783c-0.194,0-0.347,0.156-0.347,0.35v1.683
					c0,0.189,0.153,0.346,0.347,0.346c0.194,0,0.347-0.156,0.347-0.346v-1.683C10.684,11.939,10.531,11.783,10.336,11.783z"/>
				<path style="opacity:0.2258;fill:#DADADA;" d="M15.799,11.783c-0.191,0-0.348,0.156-0.348,0.35v1.683
					c0,0.189,0.156,0.346,0.348,0.346c0.19,0,0.35-0.156,0.35-0.346v-1.683C16.148,11.939,15.989,11.783,15.799,11.783z"/>
				<path style="opacity:0.2258;fill:#DADADA;" d="M10.998,11.783c0,0.003,0,0.013,0,0.016v3.105c0,0.289,0.232,0.523,0.521,0.523
					h0.559v0.885c0,0.192,0.158,0.346,0.349,0.346c0.192,0,0.348-0.153,0.348-0.346v-0.885h0.593v0.885
					c0,0.192,0.158,0.346,0.351,0.346c0.19,0,0.347-0.153,0.347-0.346v-0.885h0.561c0.287,0,0.521-0.234,0.521-0.523v-3.105
					c0-0.003,0-0.013-0.002-0.016H10.998z"/>
				<path style="opacity:0.2258;fill:#DADADA;" d="M14.101,10.657c-0.108,0-0.196-0.087-0.196-0.198
					c0-0.109,0.088-0.196,0.196-0.196c0.107,0,0.191,0.087,0.191,0.196C14.292,10.569,14.208,10.657,14.101,10.657z M14.085,9.668
					l0.371-0.692L14.38,8.932l-0.372,0.697c-0.284-0.146-0.6-0.224-0.934-0.224c-0.322,0-0.624,0.071-0.898,0.201l-0.358-0.674
					l-0.076,0.043l0.36,0.669c-0.644,0.347-1.084,1.023-1.089,1.805h4.119C15.126,10.686,14.705,10.022,14.085,9.668z M12.01,10.657
					c-0.108,0-0.196-0.087-0.196-0.198c0-0.109,0.089-0.196,0.196-0.196c0.109,0,0.197,0.087,0.197,0.196
					C12.207,10.569,12.119,10.657,12.01,10.657z"/>
			</g>
			<g style="opacity:0.2581;">
				<path style="opacity:0.2581;fill:#D5D5D5;" d="M10.307,11.748c-0.194,0-0.348,0.156-0.348,0.349v1.684
					c0,0.189,0.153,0.346,0.348,0.346c0.194,0,0.347-0.156,0.347-0.346v-1.684C10.653,11.904,10.501,11.748,10.307,11.748z"/>
				<path style="opacity:0.2581;fill:#D5D5D5;" d="M15.769,11.748c-0.191,0-0.347,0.156-0.347,0.349v1.684
					c0,0.189,0.156,0.346,0.347,0.346c0.19,0,0.351-0.156,0.351-0.346v-1.684C16.119,11.904,15.959,11.748,15.769,11.748z"/>
				<path style="opacity:0.2581;fill:#D5D5D5;" d="M10.968,11.748c0,0.003,0,0.012,0,0.016v3.105c0,0.289,0.232,0.524,0.522,0.524
					h0.558v0.885c0,0.191,0.159,0.346,0.35,0.346c0.191,0,0.348-0.154,0.348-0.346v-0.885h0.592v0.885
					c0,0.191,0.158,0.346,0.351,0.346c0.191,0,0.347-0.154,0.347-0.346v-0.885h0.561c0.287,0,0.521-0.234,0.521-0.524v-3.105
					c0-0.003,0-0.013-0.002-0.016H10.968z"/>
				<path style="opacity:0.2581;fill:#D5D5D5;" d="M14.07,10.622c-0.107,0-0.196-0.088-0.196-0.197s0.089-0.197,0.196-0.197
					s0.191,0.088,0.191,0.197S14.178,10.622,14.07,10.622z M14.056,9.633l0.371-0.692L14.35,8.897l-0.372,0.697
					c-0.283-0.146-0.599-0.225-0.934-0.225c-0.32,0-0.623,0.07-0.898,0.201l-0.357-0.674l-0.076,0.043l0.36,0.67
					c-0.644,0.347-1.084,1.023-1.089,1.805h4.119C15.097,10.651,14.676,9.987,14.056,9.633z M11.981,10.622
					c-0.108,0-0.197-0.088-0.197-0.197s0.089-0.197,0.197-0.197c0.109,0,0.196,0.088,0.196,0.197S12.089,10.622,11.981,10.622z"/>
			</g>
			<g style="opacity:0.2903;">
				<path style="opacity:0.2903;fill:#D0D0D0;" d="M10.277,11.714c-0.195,0-0.347,0.156-0.347,0.35v1.683
					c0,0.189,0.152,0.346,0.347,0.346c0.194,0,0.347-0.156,0.347-0.346v-1.683C10.624,11.87,10.471,11.714,10.277,11.714z"/>
				<path style="opacity:0.2903;fill:#D0D0D0;" d="M15.739,11.714c-0.192,0-0.348,0.156-0.348,0.35v1.683
					c0,0.189,0.155,0.346,0.348,0.346c0.19,0,0.35-0.156,0.35-0.346v-1.683C16.089,11.87,15.93,11.714,15.739,11.714z"/>
				<path style="opacity:0.2903;fill:#D0D0D0;" d="M10.938,11.714c0,0.003,0,0.013,0,0.016v3.104c0,0.289,0.232,0.523,0.522,0.523
					h0.559v0.885c0,0.192,0.158,0.346,0.349,0.346c0.192,0,0.348-0.153,0.348-0.346v-0.885h0.592v0.885
					c0,0.192,0.159,0.346,0.351,0.346c0.191,0,0.348-0.153,0.348-0.346v-0.885h0.56c0.287,0,0.522-0.234,0.522-0.523v-3.104
					c0-0.003,0-0.013-0.002-0.016H10.938z"/>
				<path style="opacity:0.2903;fill:#D0D0D0;" d="M14.04,10.588c-0.107,0-0.196-0.088-0.196-0.197c0-0.109,0.089-0.197,0.196-0.197
					c0.108,0,0.192,0.088,0.192,0.197C14.232,10.5,14.148,10.588,14.04,10.588z M14.025,9.599l0.371-0.692L14.32,8.863l-0.373,0.697
					c-0.283-0.146-0.599-0.225-0.934-0.225c-0.321,0-0.624,0.07-0.898,0.201l-0.357-0.674l-0.076,0.043l0.36,0.67
					c-0.644,0.348-1.084,1.023-1.09,1.805h4.12C15.066,10.617,14.646,9.953,14.025,9.599z M11.95,10.588
					c-0.108,0-0.197-0.088-0.197-0.197c0-0.109,0.089-0.197,0.197-0.197c0.109,0,0.197,0.088,0.197,0.197
					C12.147,10.5,12.06,10.588,11.95,10.588z"/>
			</g>
			<g style="opacity:0.3226;">
				<path style="opacity:0.3226;fill:#CBCBCB;" d="M10.246,11.679c-0.194,0-0.347,0.156-0.347,0.35v1.682
					c0,0.189,0.153,0.346,0.347,0.346c0.194,0,0.347-0.156,0.347-0.346v-1.682C10.593,11.835,10.44,11.679,10.246,11.679z"/>
				<path style="opacity:0.3226;fill:#CBCBCB;" d="M15.708,11.679c-0.19,0-0.347,0.156-0.347,0.35v1.682
					c0,0.189,0.156,0.346,0.347,0.346c0.191,0,0.351-0.156,0.351-0.346v-1.682C16.059,11.835,15.899,11.679,15.708,11.679z"/>
				<path style="opacity:0.3226;fill:#CBCBCB;" d="M10.908,11.679c0,0.003,0,0.012,0,0.015v3.105c0,0.289,0.232,0.523,0.522,0.523
					h0.558v0.886c0,0.191,0.159,0.345,0.35,0.345c0.192,0,0.348-0.153,0.348-0.345v-0.886h0.592v0.886
					c0,0.191,0.159,0.345,0.352,0.345c0.19,0,0.347-0.153,0.347-0.345v-0.886h0.56c0.288,0,0.522-0.234,0.522-0.523v-3.105
					c0-0.003,0-0.012-0.002-0.015H10.908z"/>
				<path style="opacity:0.3226;fill:#CBCBCB;" d="M14.01,10.553c-0.108,0-0.195-0.088-0.195-0.197c0-0.109,0.088-0.197,0.195-0.197
					c0.107,0,0.192,0.088,0.192,0.197C14.202,10.465,14.117,10.553,14.01,10.553z M13.995,9.563l0.371-0.692L14.29,8.828
					l-0.373,0.697c-0.284-0.146-0.599-0.225-0.934-0.225c-0.321,0-0.623,0.07-0.898,0.202l-0.358-0.674l-0.076,0.043l0.36,0.67
					c-0.644,0.347-1.084,1.023-1.09,1.805h4.119C15.036,10.582,14.615,9.918,13.995,9.563z M11.92,10.553
					c-0.107,0-0.197-0.088-0.197-0.197c0-0.109,0.09-0.197,0.197-0.197c0.108,0,0.196,0.088,0.196,0.197
					C12.116,10.465,12.028,10.553,11.92,10.553z"/>
			</g>
			<g style="opacity:0.3548;">
				<path style="opacity:0.3548;fill:#C6C6C6;" d="M10.216,11.644c-0.194,0-0.347,0.156-0.347,0.35v1.683
					c0,0.189,0.153,0.345,0.347,0.345c0.194,0,0.347-0.155,0.347-0.345v-1.683C10.563,11.8,10.41,11.644,10.216,11.644z"/>
				<path style="opacity:0.3548;fill:#C6C6C6;" d="M15.678,11.644c-0.191,0-0.348,0.156-0.348,0.35v1.683
					c0,0.189,0.156,0.345,0.348,0.345s0.35-0.155,0.35-0.345v-1.683C16.027,11.8,15.869,11.644,15.678,11.644z"/>
				<path style="opacity:0.3548;fill:#C6C6C6;" d="M10.877,11.644c0,0.003,0,0.013,0,0.016v3.104c0,0.289,0.232,0.524,0.521,0.524
					h0.559v0.885c0,0.192,0.158,0.346,0.349,0.346c0.192,0,0.348-0.153,0.348-0.346v-0.885h0.593v0.885
					c0,0.192,0.159,0.346,0.351,0.346c0.191,0,0.348-0.153,0.348-0.346v-0.885h0.56c0.288,0,0.522-0.234,0.522-0.524V11.66
					c0-0.003,0-0.013-0.002-0.016H10.877z"/>
				<path style="opacity:0.3548;fill:#C6C6C6;" d="M13.979,10.518c-0.108,0-0.196-0.087-0.196-0.197s0.088-0.197,0.196-0.197
					c0.107,0,0.191,0.087,0.191,0.197S14.087,10.518,13.979,10.518z M13.965,9.529l0.371-0.692l-0.077-0.043L13.887,9.49
					c-0.284-0.146-0.6-0.225-0.934-0.225c-0.321,0-0.623,0.071-0.898,0.202l-0.357-0.675l-0.076,0.043l0.36,0.67
					c-0.644,0.347-1.084,1.023-1.089,1.805h4.119C15.006,10.548,14.584,9.883,13.965,9.529z M11.889,10.518
					c-0.108,0-0.197-0.087-0.197-0.197s0.089-0.197,0.197-0.197c0.109,0,0.197,0.087,0.197,0.197S11.998,10.518,11.889,10.518z"/>
			</g>
			<g style="opacity:0.3871;">
				<path style="opacity:0.3871;fill:#C0C0C0;" d="M10.186,11.609c-0.194,0-0.347,0.156-0.347,0.35v1.683
					c0,0.19,0.152,0.347,0.347,0.347c0.194,0,0.347-0.156,0.347-0.347v-1.683C10.533,11.766,10.38,11.609,10.186,11.609z"/>
				<path style="opacity:0.3871;fill:#C0C0C0;" d="M15.648,11.609c-0.191,0-0.348,0.156-0.348,0.35v1.683
					c0,0.19,0.156,0.347,0.348,0.347c0.19,0,0.35-0.156,0.35-0.347v-1.683C15.998,11.766,15.839,11.609,15.648,11.609z"/>
				<path style="opacity:0.3871;fill:#C0C0C0;" d="M10.848,11.609c0,0.003,0,0.013,0,0.016v3.104c0,0.289,0.231,0.523,0.521,0.523
					h0.559v0.886c0,0.191,0.158,0.346,0.349,0.346c0.192,0,0.349-0.154,0.349-0.346v-0.886h0.592v0.886
					c0,0.191,0.158,0.346,0.352,0.346c0.19,0,0.347-0.154,0.347-0.346v-0.886h0.561c0.287,0,0.521-0.234,0.521-0.523v-3.104
					c0-0.003,0-0.013-0.002-0.016H10.848z"/>
				<path style="opacity:0.3871;fill:#C0C0C0;" d="M13.949,10.483c-0.107,0-0.195-0.087-0.195-0.197
					c0-0.109,0.088-0.197,0.195-0.197s0.191,0.087,0.191,0.197C14.141,10.396,14.057,10.483,13.949,10.483z M13.935,9.494
					l0.37-0.692l-0.075-0.043l-0.372,0.697c-0.284-0.146-0.6-0.225-0.934-0.225c-0.321,0-0.624,0.071-0.898,0.201l-0.358-0.674
					l-0.076,0.043l0.36,0.67c-0.644,0.348-1.084,1.023-1.09,1.805h4.119C14.975,10.513,14.555,9.849,13.935,9.494z M11.859,10.483
					c-0.108,0-0.197-0.087-0.197-0.197c0-0.109,0.089-0.197,0.197-0.197c0.109,0,0.197,0.087,0.197,0.197
					C12.056,10.396,11.968,10.483,11.859,10.483z"/>
			</g>
			<g style="opacity:0.4194;">
				<path style="opacity:0.4194;fill:#BBBBBB;" d="M10.156,11.575c-0.194,0-0.347,0.156-0.347,0.35v1.683
					c0,0.189,0.153,0.346,0.347,0.346c0.194,0,0.347-0.156,0.347-0.346v-1.683C10.503,11.731,10.35,11.575,10.156,11.575z"/>
				<path style="opacity:0.4194;fill:#BBBBBB;" d="M15.618,11.575c-0.191,0-0.348,0.156-0.348,0.35v1.683
					c0,0.189,0.156,0.346,0.348,0.346c0.19,0,0.35-0.156,0.35-0.346v-1.683C15.968,11.731,15.809,11.575,15.618,11.575z"/>
				<path style="opacity:0.4194;fill:#BBBBBB;" d="M10.817,11.575c0,0.003,0,0.013,0,0.016v3.104c0,0.289,0.232,0.523,0.521,0.523
					h0.559v0.885c0,0.192,0.158,0.346,0.349,0.346c0.192,0,0.349-0.153,0.349-0.346v-0.885h0.593v0.885
					c0,0.192,0.158,0.346,0.351,0.346c0.191,0,0.347-0.153,0.347-0.346v-0.885h0.561c0.287,0,0.521-0.234,0.521-0.523v-3.104
					c0-0.003,0-0.013-0.002-0.016H10.817z"/>
				<path style="opacity:0.4194;fill:#BBBBBB;" d="M13.92,10.449c-0.108,0-0.196-0.088-0.196-0.198c0-0.109,0.088-0.197,0.196-0.197
					c0.107,0,0.191,0.088,0.191,0.197C14.111,10.361,14.027,10.449,13.92,10.449z M13.904,9.46l0.371-0.692l-0.076-0.043
					l-0.372,0.697c-0.284-0.146-0.599-0.225-0.934-0.225c-0.321,0-0.624,0.07-0.898,0.201l-0.358-0.674l-0.077,0.043l0.36,0.67
					c-0.644,0.348-1.084,1.023-1.089,1.805h4.12C14.945,10.479,14.524,9.814,13.904,9.46z M11.829,10.449
					c-0.107,0-0.196-0.088-0.196-0.198c0-0.109,0.089-0.197,0.196-0.197c0.109,0,0.197,0.088,0.197,0.197
					C12.026,10.361,11.939,10.449,11.829,10.449z"/>
			</g>
			<g style="opacity:0.4516;">
				<path style="opacity:0.4516;fill:#B6B6B6;" d="M10.125,11.54c-0.195,0-0.347,0.156-0.347,0.35v1.682
					c0,0.189,0.152,0.346,0.347,0.346c0.194,0,0.347-0.156,0.347-0.346V11.89C10.472,11.696,10.319,11.54,10.125,11.54z"/>
				<path style="opacity:0.4516;fill:#B6B6B6;" d="M15.587,11.54c-0.19,0-0.347,0.156-0.347,0.35v1.682
					c0,0.189,0.156,0.346,0.347,0.346c0.191,0,0.351-0.156,0.351-0.346V11.89C15.938,11.696,15.778,11.54,15.587,11.54z"/>
				<path style="opacity:0.4516;fill:#B6B6B6;" d="M10.787,11.54c0,0.003,0,0.013,0,0.016v3.104c0,0.289,0.232,0.523,0.521,0.523
					h0.559v0.885c0,0.192,0.158,0.346,0.349,0.346c0.192,0,0.349-0.153,0.349-0.346v-0.885h0.592v0.885
					c0,0.192,0.159,0.346,0.352,0.346c0.19,0,0.347-0.153,0.347-0.346v-0.885h0.561c0.287,0,0.521-0.234,0.521-0.523v-3.104
					c0-0.003,0-0.013-0.002-0.016H10.787z"/>
				<path style="opacity:0.4516;fill:#B6B6B6;" d="M13.889,10.414c-0.107,0-0.195-0.087-0.195-0.197
					c0-0.109,0.088-0.197,0.195-0.197c0.107,0,0.192,0.088,0.192,0.197C14.081,10.327,13.996,10.414,13.889,10.414z M13.874,9.425
					l0.371-0.692l-0.076-0.044l-0.372,0.698c-0.284-0.146-0.6-0.225-0.935-0.225c-0.321,0-0.623,0.07-0.898,0.201l-0.358-0.674
					L11.53,8.733l0.36,0.669c-0.644,0.348-1.084,1.023-1.089,1.805h4.119C14.915,10.443,14.494,9.779,13.874,9.425z M11.799,10.414
					c-0.108,0-0.197-0.087-0.197-0.197c0-0.109,0.089-0.197,0.197-0.197c0.109,0,0.197,0.088,0.197,0.197
					C11.996,10.327,11.908,10.414,11.799,10.414z"/>
			</g>
			<g style="opacity:0.4839;">
				<path style="opacity:0.4839;fill:#B1B1B1;" d="M10.095,11.505c-0.194,0-0.347,0.156-0.347,0.35v1.682
					c0,0.189,0.153,0.346,0.347,0.346c0.194,0,0.347-0.156,0.347-0.346v-1.682C10.442,11.661,10.289,11.505,10.095,11.505z"/>
				<path style="opacity:0.4839;fill:#B1B1B1;" d="M15.557,11.505c-0.19,0-0.347,0.156-0.347,0.35v1.682
					c0,0.189,0.156,0.346,0.347,0.346c0.191,0,0.351-0.156,0.351-0.346v-1.682C15.907,11.661,15.748,11.505,15.557,11.505z"/>
				<path style="opacity:0.4839;fill:#B1B1B1;" d="M10.757,11.505c0,0.003,0,0.013,0,0.016v3.104c0,0.289,0.232,0.523,0.521,0.523
					h0.558v0.885c0,0.193,0.158,0.346,0.35,0.346c0.192,0,0.348-0.152,0.348-0.346v-0.885h0.593v0.885
					c0,0.193,0.159,0.346,0.351,0.346c0.191,0,0.348-0.152,0.348-0.346v-0.885h0.561c0.287,0,0.521-0.234,0.521-0.523v-3.104
					c0-0.003,0-0.013-0.002-0.016H10.757z"/>
				<path style="opacity:0.4839;fill:#B1B1B1;" d="M13.858,10.379c-0.108,0-0.195-0.087-0.195-0.197
					c0-0.109,0.087-0.197,0.195-0.197c0.108,0,0.192,0.088,0.192,0.197C14.051,10.292,13.967,10.379,13.858,10.379z M13.844,9.39
					l0.371-0.691l-0.076-0.044l-0.373,0.697c-0.283-0.146-0.599-0.225-0.934-0.225c-0.321,0-0.624,0.071-0.898,0.201l-0.357-0.674
					L11.5,8.698l0.36,0.67c-0.645,0.347-1.085,1.022-1.09,1.804h4.119C14.885,10.409,14.464,9.744,13.844,9.39z M11.768,10.379
					c-0.108,0-0.197-0.087-0.197-0.197c0-0.109,0.089-0.197,0.197-0.197c0.11,0,0.197,0.088,0.197,0.197
					C11.965,10.292,11.878,10.379,11.768,10.379z"/>
			</g>
			<g style="opacity:0.5161;">
				<path style="opacity:0.5161;fill:#ABABAB;" d="M10.065,11.471c-0.194,0-0.347,0.156-0.347,0.35v1.683
					c0,0.191,0.153,0.346,0.347,0.346c0.194,0,0.347-0.155,0.347-0.346V11.82C10.412,11.627,10.259,11.471,10.065,11.471z"/>
				<path style="opacity:0.5161;fill:#ABABAB;" d="M15.527,11.471c-0.191,0-0.348,0.156-0.348,0.35v1.683
					c0,0.191,0.156,0.346,0.348,0.346c0.191,0,0.35-0.155,0.35-0.346V11.82C15.877,11.627,15.718,11.471,15.527,11.471z"/>
				<path style="opacity:0.5161;fill:#ABABAB;" d="M10.727,11.471c0,0.003,0,0.013,0,0.016v3.104c0,0.289,0.231,0.524,0.521,0.524
					h0.559v0.884c0,0.192,0.158,0.346,0.349,0.346c0.192,0,0.349-0.153,0.349-0.346v-0.884h0.592v0.884
					c0,0.192,0.159,0.346,0.352,0.346c0.191,0,0.347-0.153,0.347-0.346v-0.884h0.561c0.287,0,0.522-0.235,0.522-0.524v-3.104
					c0-0.003,0-0.013-0.002-0.016H10.727z"/>
				<path style="opacity:0.5161;fill:#ABABAB;" d="M13.828,10.345c-0.107,0-0.195-0.087-0.195-0.197
					c0-0.109,0.088-0.197,0.195-0.197c0.108,0,0.192,0.087,0.192,0.197C14.021,10.257,13.936,10.345,13.828,10.345z M13.814,9.355
					l0.371-0.692L14.108,8.62l-0.372,0.697c-0.284-0.146-0.6-0.225-0.935-0.225c-0.321,0-0.624,0.071-0.898,0.202L11.546,8.62
					L11.47,8.663l0.36,0.67c-0.644,0.348-1.084,1.023-1.09,1.805h4.119C14.854,10.375,14.434,9.71,13.814,9.355z M11.738,10.345
					c-0.107,0-0.196-0.087-0.196-0.197c0-0.109,0.089-0.197,0.196-0.197c0.109,0,0.197,0.087,0.197,0.197
					C11.936,10.257,11.848,10.345,11.738,10.345z"/>
			</g>
			<g style="opacity:0.5484;">
				<path style="opacity:0.5484;fill:#A6A6A6;" d="M10.034,11.436c-0.193,0-0.347,0.157-0.347,0.35v1.683
					c0,0.189,0.153,0.346,0.347,0.346c0.194,0,0.348-0.156,0.348-0.346v-1.683C10.382,11.593,10.229,11.436,10.034,11.436z"/>
				<path style="opacity:0.5484;fill:#A6A6A6;" d="M15.496,11.436c-0.19,0-0.347,0.157-0.347,0.35v1.683
					c0,0.189,0.156,0.346,0.347,0.346c0.191,0,0.351-0.156,0.351-0.346v-1.683C15.847,11.593,15.688,11.436,15.496,11.436z"/>
				<path style="opacity:0.5484;fill:#A6A6A6;" d="M10.696,11.436c0,0.003,0,0.013,0,0.016v3.104c0,0.289,0.232,0.524,0.522,0.524
					h0.559v0.885c0,0.192,0.158,0.346,0.349,0.346c0.192,0,0.348-0.153,0.348-0.346V15.08h0.593v0.885
					c0,0.192,0.158,0.346,0.351,0.346c0.19,0,0.347-0.153,0.347-0.346V15.08h0.561c0.287,0,0.522-0.234,0.522-0.524v-3.104
					c0-0.003,0-0.013-0.002-0.016H10.696z"/>
				<path style="opacity:0.5484;fill:#A6A6A6;" d="M13.799,10.31c-0.108,0-0.196-0.087-0.196-0.197c0-0.109,0.088-0.196,0.196-0.196
					c0.107,0,0.191,0.087,0.191,0.196C13.99,10.223,13.906,10.31,13.799,10.31z M13.783,9.321l0.371-0.692l-0.076-0.044
					l-0.373,0.697c-0.283-0.146-0.598-0.225-0.934-0.225c-0.321,0-0.624,0.071-0.898,0.202l-0.358-0.675l-0.076,0.044l0.36,0.67
					c-0.644,0.347-1.084,1.022-1.09,1.804h4.119C14.824,10.34,14.403,9.675,13.783,9.321z M11.708,10.31
					c-0.107,0-0.196-0.087-0.196-0.197c0-0.109,0.089-0.196,0.196-0.196c0.109,0,0.197,0.087,0.197,0.196
					C11.905,10.223,11.817,10.31,11.708,10.31z"/>
			</g>
			<g style="opacity:0.5806;">
				<path style="opacity:0.5806;fill:#A1A1A1;" d="M10.004,11.401c-0.194,0-0.347,0.156-0.347,0.35v1.683
					c0,0.189,0.153,0.346,0.347,0.346c0.194,0,0.347-0.156,0.347-0.346v-1.683C10.352,11.558,10.199,11.401,10.004,11.401z"/>
				<path style="opacity:0.5806;fill:#A1A1A1;" d="M15.467,11.401c-0.191,0-0.348,0.156-0.348,0.35v1.683
					c0,0.189,0.156,0.346,0.348,0.346c0.19,0,0.35-0.156,0.35-0.346v-1.683C15.816,11.558,15.657,11.401,15.467,11.401z"/>
				<path style="opacity:0.5806;fill:#A1A1A1;" d="M10.666,11.401c0,0.003,0,0.013,0,0.016v3.104c0,0.289,0.231,0.523,0.521,0.523
					h0.559v0.885c0,0.192,0.158,0.346,0.349,0.346c0.192,0,0.349-0.153,0.349-0.346v-0.885h0.593v0.885
					c0,0.192,0.158,0.346,0.351,0.346c0.191,0,0.347-0.153,0.347-0.346v-0.885h0.56c0.287,0,0.522-0.234,0.522-0.523v-3.104
					c0-0.003,0-0.013-0.002-0.016H10.666z"/>
				<path style="opacity:0.5806;fill:#A1A1A1;" d="M13.768,10.275c-0.107,0-0.195-0.087-0.195-0.198
					c0-0.109,0.088-0.197,0.195-0.197s0.192,0.088,0.192,0.197C13.96,10.188,13.875,10.275,13.768,10.275z M13.753,9.286
					l0.371-0.692L14.048,8.55l-0.372,0.697c-0.284-0.146-0.6-0.225-0.935-0.225c-0.321,0-0.624,0.071-0.897,0.202L11.485,8.55
					L11.41,8.594l0.36,0.67c-0.644,0.347-1.084,1.023-1.09,1.805h4.12C14.794,10.305,14.373,9.64,13.753,9.286z M11.678,10.275
					c-0.107,0-0.196-0.087-0.196-0.198c0-0.109,0.089-0.197,0.196-0.197c0.109,0,0.197,0.088,0.197,0.197
					C11.875,10.188,11.787,10.275,11.678,10.275z"/>
			</g>
			<g style="opacity:0.6129;">
				<path style="opacity:0.6129;fill:#9C9C9C;" d="M9.974,11.367c-0.193,0-0.347,0.156-0.347,0.349v1.682
					c0,0.19,0.153,0.347,0.347,0.347c0.194,0,0.348-0.156,0.348-0.347v-1.682C10.321,11.523,10.168,11.367,9.974,11.367z"/>
				<path style="opacity:0.6129;fill:#9C9C9C;" d="M15.436,11.367c-0.19,0-0.347,0.156-0.347,0.349v1.682
					c0,0.19,0.156,0.347,0.347,0.347c0.191,0,0.351-0.156,0.351-0.347v-1.682C15.786,11.523,15.627,11.367,15.436,11.367z"/>
				<path style="opacity:0.6129;fill:#9C9C9C;" d="M10.636,11.367c0,0.002,0,0.012,0,0.015v3.104c0,0.289,0.232,0.524,0.521,0.524
					h0.559v0.884c0,0.193,0.158,0.346,0.349,0.346c0.192,0,0.348-0.152,0.348-0.346v-0.884h0.593v0.884
					c0,0.193,0.158,0.346,0.35,0.346c0.192,0,0.347-0.152,0.347-0.346v-0.884h0.561c0.287,0,0.522-0.235,0.522-0.524v-3.104
					c0-0.003,0-0.013-0.002-0.015H10.636z"/>
				<path style="opacity:0.6129;fill:#9C9C9C;" d="M13.738,10.24c-0.108,0-0.196-0.087-0.196-0.197c0-0.109,0.088-0.196,0.196-0.196
					c0.107,0,0.191,0.087,0.191,0.196C13.93,10.153,13.846,10.24,13.738,10.24z M13.723,9.252l0.371-0.693l-0.076-0.043
					l-0.372,0.697c-0.284-0.146-0.599-0.225-0.935-0.225c-0.321,0-0.623,0.071-0.897,0.202l-0.358-0.674l-0.077,0.043l0.36,0.67
					c-0.644,0.347-1.084,1.023-1.09,1.805h4.12C14.764,10.271,14.343,9.605,13.723,9.252z M11.648,10.24
					c-0.108,0-0.196-0.087-0.196-0.197c0-0.109,0.089-0.196,0.196-0.196c0.109,0,0.197,0.087,0.197,0.196
					C11.845,10.153,11.757,10.24,11.648,10.24z"/>
			</g>
			<g style="opacity:0.6452;">
				<path style="opacity:0.6452;fill:#969696;" d="M9.944,11.332c-0.194,0-0.347,0.156-0.347,0.35v1.683
					c0,0.189,0.153,0.346,0.347,0.346c0.193,0,0.347-0.156,0.347-0.346v-1.683C10.291,11.488,10.138,11.332,9.944,11.332z"/>
				<path style="opacity:0.6452;fill:#969696;" d="M15.406,11.332c-0.191,0-0.348,0.156-0.348,0.35v1.683
					c0,0.189,0.156,0.346,0.348,0.346c0.19,0,0.35-0.156,0.35-0.346v-1.683C15.756,11.488,15.597,11.332,15.406,11.332z"/>
				<path style="opacity:0.6452;fill:#969696;" d="M10.606,11.332c0,0.003,0,0.013,0,0.016v3.104c0,0.289,0.231,0.524,0.521,0.524
					h0.559v0.885c0,0.192,0.158,0.346,0.349,0.346c0.192,0,0.349-0.153,0.349-0.346v-0.885h0.593v0.885
					c0,0.192,0.158,0.346,0.351,0.346c0.191,0,0.347-0.153,0.347-0.346v-0.885h0.561c0.287,0,0.521-0.234,0.521-0.524v-3.104
					c0-0.003,0-0.013-0.001-0.016H10.606z"/>
				<path style="opacity:0.6452;fill:#969696;" d="M13.708,10.206c-0.108,0-0.196-0.087-0.196-0.197
					c0-0.109,0.088-0.197,0.196-0.197c0.107,0,0.192,0.088,0.192,0.197C13.9,10.118,13.815,10.206,13.708,10.206z M13.692,9.217
					l0.372-0.692l-0.077-0.043l-0.372,0.697c-0.283-0.147-0.599-0.225-0.934-0.225c-0.321,0-0.623,0.071-0.898,0.202l-0.358-0.674
					l-0.077,0.043l0.361,0.669c-0.644,0.348-1.085,1.023-1.089,1.805h4.118C14.734,10.235,14.313,9.571,13.692,9.217z
					 M11.617,10.206c-0.107,0-0.196-0.087-0.196-0.197c0-0.109,0.089-0.197,0.196-0.197c0.109,0,0.197,0.088,0.197,0.197
					C11.814,10.118,11.727,10.206,11.617,10.206z"/>
			</g>
			<g style="opacity:0.6774;">
				<path style="opacity:0.6774;fill:#919191;" d="M9.914,11.298c-0.194,0-0.347,0.156-0.347,0.35v1.682
					c0,0.19,0.153,0.346,0.347,0.346c0.195,0,0.347-0.156,0.347-0.346v-1.682C10.261,11.454,10.108,11.298,9.914,11.298z"/>
				<path style="opacity:0.6774;fill:#919191;" d="M15.376,11.298c-0.191,0-0.347,0.156-0.347,0.35v1.682
					c0,0.19,0.156,0.346,0.347,0.346c0.19,0,0.35-0.156,0.35-0.346v-1.682C15.726,11.454,15.566,11.298,15.376,11.298z"/>
				<path style="opacity:0.6774;fill:#919191;" d="M10.575,11.298c0,0.003,0,0.012,0,0.016v3.104c0,0.289,0.232,0.523,0.521,0.523
					h0.559v0.885c0,0.192,0.158,0.346,0.349,0.346c0.192,0,0.348-0.153,0.348-0.346v-0.885h0.593v0.885
					c0,0.192,0.158,0.346,0.351,0.346c0.191,0,0.347-0.153,0.347-0.346v-0.885h0.561c0.287,0,0.521-0.234,0.521-0.523v-3.104
					c0-0.004,0-0.013-0.002-0.016H10.575z"/>
				<path style="opacity:0.6774;fill:#919191;" d="M13.678,10.171c-0.108,0-0.196-0.087-0.196-0.197
					c0-0.109,0.088-0.197,0.196-0.197c0.108,0,0.191,0.088,0.191,0.197C13.869,10.084,13.785,10.171,13.678,10.171z M13.662,9.182
					l0.371-0.692l-0.076-0.044l-0.372,0.697c-0.284-0.146-0.599-0.225-0.934-0.225c-0.321,0-0.624,0.071-0.898,0.202l-0.358-0.675
					L11.319,8.49l0.36,0.669c-0.644,0.347-1.085,1.023-1.089,1.805h4.119C14.703,10.201,14.283,9.536,13.662,9.182z M11.587,10.171
					c-0.107,0-0.196-0.087-0.196-0.197c0-0.109,0.089-0.197,0.196-0.197c0.109,0,0.197,0.088,0.197,0.197
					C11.784,10.084,11.696,10.171,11.587,10.171z"/>
			</g>
			<g style="opacity:0.7097;">
				<path style="opacity:0.7097;fill:#8C8C8C;" d="M9.884,11.263c-0.194,0-0.347,0.156-0.347,0.35v1.683
					c0,0.189,0.153,0.346,0.347,0.346c0.194,0,0.347-0.156,0.347-0.346v-1.683C10.231,11.419,10.078,11.263,9.884,11.263z"/>
				<path style="opacity:0.7097;fill:#8C8C8C;" d="M15.346,11.263c-0.191,0-0.348,0.156-0.348,0.35v1.683
					c0,0.189,0.156,0.346,0.348,0.346c0.19,0,0.35-0.156,0.35-0.346v-1.683C15.695,11.419,15.536,11.263,15.346,11.263z"/>
				<path style="opacity:0.7097;fill:#8C8C8C;" d="M10.545,11.263c0,0.003,0,0.013,0,0.016v3.104c0,0.289,0.232,0.523,0.521,0.523
					h0.559v0.885c0,0.192,0.158,0.346,0.349,0.346c0.192,0,0.349-0.153,0.349-0.346v-0.885h0.593v0.885
					c0,0.192,0.159,0.346,0.351,0.346c0.191,0,0.347-0.153,0.347-0.346v-0.885h0.562c0.286,0,0.521-0.234,0.521-0.523v-3.104
					c0-0.003,0-0.013-0.002-0.016H10.545z"/>
				<path style="opacity:0.7097;fill:#8C8C8C;" d="M13.648,10.137c-0.108,0-0.196-0.088-0.196-0.198
					c0-0.109,0.088-0.197,0.196-0.197c0.107,0,0.191,0.088,0.191,0.197C13.839,10.049,13.755,10.137,13.648,10.137z M13.633,9.147
					l0.371-0.692l-0.077-0.043l-0.372,0.697c-0.284-0.146-0.599-0.224-0.935-0.224c-0.321,0-0.623,0.071-0.897,0.202l-0.358-0.674
					l-0.077,0.043l0.36,0.67c-0.644,0.346-1.084,1.023-1.089,1.804h4.119C14.674,10.166,14.252,9.501,13.633,9.147z M11.557,10.137
					c-0.107,0-0.196-0.088-0.196-0.198c0-0.109,0.089-0.197,0.196-0.197c0.109,0,0.197,0.088,0.197,0.197
					C11.754,10.049,11.666,10.137,11.557,10.137z"/>
			</g>
			<g style="opacity:0.7419;">
				<path style="opacity:0.7419;fill:#878787;" d="M9.853,11.228c-0.194,0-0.347,0.157-0.347,0.35v1.682
					c0,0.189,0.153,0.346,0.347,0.346c0.194,0,0.347-0.156,0.347-0.346v-1.682C10.2,11.385,10.047,11.228,9.853,11.228z"/>
				<path style="opacity:0.7419;fill:#878787;" d="M15.314,11.228c-0.189,0-0.346,0.157-0.346,0.35v1.682
					c0,0.189,0.156,0.346,0.346,0.346c0.191,0,0.352-0.156,0.352-0.346v-1.682C15.666,11.385,15.506,11.228,15.314,11.228z"/>
				<path style="opacity:0.7419;fill:#878787;" d="M10.515,11.228c0,0.003,0,0.012,0,0.016v3.104c0,0.289,0.233,0.523,0.522,0.523
					h0.559v0.885c0,0.193,0.158,0.346,0.349,0.346c0.192,0,0.348-0.152,0.348-0.346v-0.885h0.593v0.885
					c0,0.193,0.158,0.346,0.35,0.346c0.191,0,0.347-0.152,0.347-0.346v-0.885h0.561c0.287,0,0.521-0.234,0.521-0.523v-3.104
					c0-0.004,0-0.013-0.002-0.016H10.515z"/>
				<path style="opacity:0.7419;fill:#878787;" d="M13.617,10.102c-0.108,0-0.196-0.087-0.196-0.197
					c0-0.109,0.088-0.196,0.196-0.196c0.107,0,0.191,0.087,0.191,0.196C13.809,10.015,13.725,10.102,13.617,10.102z M13.602,9.113
					l0.371-0.692l-0.077-0.044l-0.372,0.697C13.241,8.928,12.926,8.85,12.59,8.85c-0.321,0-0.623,0.071-0.897,0.202l-0.358-0.675
					l-0.076,0.044l0.36,0.67c-0.644,0.347-1.085,1.022-1.089,1.804h4.119C14.644,10.132,14.223,9.467,13.602,9.113z M11.526,10.102
					c-0.108,0-0.196-0.087-0.196-0.197c0-0.109,0.089-0.196,0.196-0.196c0.109,0,0.197,0.087,0.197,0.196
					C11.724,10.015,11.636,10.102,11.526,10.102z"/>
			</g>
			<g style="opacity:0.7742;">
				<path style="opacity:0.7742;fill:#828282;" d="M9.823,11.193c-0.194,0-0.347,0.156-0.347,0.35v1.682
					c0,0.19,0.153,0.347,0.347,0.347c0.194,0,0.347-0.156,0.347-0.347v-1.682C10.17,11.35,10.018,11.193,9.823,11.193z"/>
				<path style="opacity:0.7742;fill:#828282;" d="M15.285,11.193c-0.191,0-0.348,0.156-0.348,0.35v1.682
					c0,0.19,0.157,0.347,0.348,0.347c0.19,0,0.351-0.156,0.351-0.347v-1.682C15.636,11.35,15.476,11.193,15.285,11.193z"/>
				<path style="opacity:0.7742;fill:#828282;" d="M10.485,11.193c0,0.003,0,0.012,0,0.016v3.105c0,0.289,0.231,0.523,0.521,0.523
					h0.559v0.885c0,0.192,0.158,0.346,0.35,0.346c0.191,0,0.348-0.153,0.348-0.346v-0.885h0.593v0.885
					c0,0.192,0.159,0.346,0.351,0.346c0.191,0,0.348-0.153,0.348-0.346v-0.885h0.561c0.287,0,0.521-0.234,0.521-0.523v-3.105
					c0-0.004,0-0.013-0.003-0.016H10.485z"/>
				<path style="opacity:0.7742;fill:#828282;" d="M13.587,10.067c-0.108,0-0.196-0.087-0.196-0.198
					c0-0.108,0.088-0.196,0.196-0.196c0.107,0,0.192,0.088,0.192,0.196C13.779,9.979,13.694,10.067,13.587,10.067z M13.572,9.078
					l0.37-0.692l-0.076-0.044L13.494,9.04c-0.283-0.146-0.599-0.225-0.934-0.225c-0.321,0-0.624,0.071-0.898,0.202l-0.357-0.675
					l-0.076,0.044l0.36,0.67c-0.644,0.347-1.084,1.022-1.09,1.805h4.12C14.612,10.097,14.191,9.432,13.572,9.078z M11.496,10.067
					c-0.107,0-0.196-0.087-0.196-0.198c0-0.108,0.088-0.196,0.196-0.196c0.109,0,0.198,0.088,0.198,0.196
					C11.694,9.979,11.606,10.067,11.496,10.067z"/>
			</g>
			<g style="opacity:0.8065;">
				<path style="opacity:0.8065;fill:#7C7C7C;" d="M9.792,11.159c-0.194,0-0.346,0.156-0.346,0.35v1.682
					c0,0.189,0.152,0.346,0.346,0.346c0.194,0,0.347-0.156,0.347-0.346v-1.682C10.14,11.315,9.987,11.159,9.792,11.159z"/>
				<path style="opacity:0.8065;fill:#7C7C7C;" d="M15.255,11.159c-0.19,0-0.348,0.156-0.348,0.35v1.682
					c0,0.189,0.157,0.346,0.348,0.346s0.351-0.156,0.351-0.346v-1.682C15.606,11.315,15.445,11.159,15.255,11.159z"/>
				<path style="opacity:0.8065;fill:#7C7C7C;" d="M10.454,11.159c0,0.003,0,0.012,0,0.016v3.104c0,0.289,0.232,0.523,0.522,0.523
					h0.559v0.886c0,0.192,0.158,0.346,0.349,0.346c0.192,0,0.348-0.153,0.348-0.346v-0.886h0.593v0.886
					c0,0.192,0.158,0.346,0.35,0.346c0.191,0,0.348-0.153,0.348-0.346v-0.886h0.561c0.287,0,0.521-0.234,0.521-0.523v-3.104
					c0-0.003,0-0.013-0.002-0.016H10.454z"/>
				<path style="opacity:0.8065;fill:#7C7C7C;" d="M13.557,10.032c-0.108,0-0.196-0.087-0.196-0.198
					c0-0.108,0.088-0.196,0.196-0.196c0.108,0,0.192,0.088,0.192,0.196C13.749,9.945,13.664,10.032,13.557,10.032z M13.542,9.044
					l0.371-0.693l-0.077-0.043l-0.371,0.697C13.18,8.858,12.866,8.78,12.53,8.78c-0.321,0-0.624,0.071-0.898,0.202l-0.357-0.674
					l-0.077,0.043l0.36,0.67c-0.643,0.346-1.084,1.022-1.09,1.804h4.12C14.582,10.062,14.162,9.397,13.542,9.044z M11.466,10.032
					c-0.107,0-0.196-0.087-0.196-0.198c0-0.108,0.088-0.196,0.196-0.196c0.109,0,0.198,0.088,0.198,0.196
					C11.664,9.945,11.575,10.032,11.466,10.032z"/>
			</g>
			<g style="opacity:0.8387;">
				<path style="opacity:0.8387;fill:#777777;" d="M9.763,11.124c-0.194,0-0.347,0.156-0.347,0.35v1.682
					c0,0.19,0.153,0.347,0.347,0.347c0.194,0,0.347-0.156,0.347-0.347v-1.682C10.109,11.28,9.957,11.124,9.763,11.124z"/>
				<path style="opacity:0.8387;fill:#777777;" d="M15.225,11.124c-0.191,0-0.347,0.156-0.347,0.35v1.682
					c0,0.19,0.155,0.347,0.347,0.347c0.191,0,0.351-0.156,0.351-0.347v-1.682C15.575,11.28,15.416,11.124,15.225,11.124z"/>
				<path style="opacity:0.8387;fill:#777777;" d="M10.424,11.124c0,0.003,0,0.012,0,0.016v3.104c0,0.289,0.232,0.524,0.522,0.524
					h0.558v0.885c0,0.192,0.158,0.346,0.35,0.346c0.192,0,0.348-0.153,0.348-0.346v-0.885h0.593v0.885
					c0,0.192,0.159,0.346,0.35,0.346c0.191,0,0.348-0.153,0.348-0.346v-0.885h0.56c0.288,0,0.522-0.234,0.522-0.524V11.14
					c0-0.004,0-0.013-0.002-0.016H10.424z"/>
				<path style="opacity:0.8387;fill:#777777;" d="M13.526,9.997c-0.108,0-0.196-0.087-0.196-0.197c0-0.108,0.088-0.196,0.196-0.196
					c0.107,0,0.192,0.088,0.192,0.196C13.719,9.91,13.634,9.997,13.526,9.997z M13.512,9.009l0.371-0.692l-0.076-0.044L13.435,8.97
					c-0.284-0.147-0.6-0.225-0.935-0.225c-0.321,0-0.623,0.071-0.898,0.202l-0.358-0.675l-0.076,0.044l0.36,0.67
					c-0.644,0.347-1.084,1.022-1.09,1.805h4.12C14.553,10.027,14.131,9.362,13.512,9.009z M11.436,9.997
					c-0.108,0-0.196-0.087-0.196-0.197c0-0.108,0.088-0.196,0.196-0.196c0.109,0,0.197,0.088,0.197,0.196
					C11.633,9.91,11.545,9.997,11.436,9.997z"/>
			</g>
			<g style="opacity:0.871;">
				<path style="opacity:0.871;fill:#727272;" d="M9.732,11.09c-0.194,0-0.347,0.156-0.347,0.349v1.682
					c0,0.189,0.152,0.346,0.347,0.346c0.194,0,0.347-0.156,0.347-0.346v-1.682C10.079,11.246,9.927,11.09,9.732,11.09z"/>
				<path style="opacity:0.871;fill:#727272;" d="M15.194,11.09c-0.19,0-0.347,0.156-0.347,0.349v1.682
					c0,0.189,0.156,0.346,0.347,0.346c0.191,0,0.351-0.156,0.351-0.346v-1.682C15.545,11.246,15.386,11.09,15.194,11.09z"/>
				<path style="opacity:0.871;fill:#727272;" d="M10.394,11.09c0,0.003,0,0.011,0,0.015v3.104c0,0.289,0.232,0.523,0.521,0.523
					h0.559v0.885c0,0.193,0.158,0.346,0.349,0.346c0.192,0,0.348-0.152,0.348-0.346v-0.885h0.593v0.885
					c0,0.193,0.158,0.346,0.35,0.346c0.192,0,0.348-0.152,0.348-0.346v-0.885h0.56c0.288,0,0.522-0.234,0.522-0.523v-3.104
					c0-0.004,0-0.013-0.002-0.015H10.394z"/>
				<path style="opacity:0.871;fill:#727272;" d="M13.496,9.962c-0.108,0-0.196-0.087-0.196-0.197c0-0.108,0.088-0.196,0.196-0.196
					c0.107,0,0.192,0.088,0.192,0.196C13.689,9.875,13.604,9.962,13.496,9.962z M13.481,8.975l0.371-0.693l-0.077-0.044
					l-0.371,0.698C13.12,8.789,12.805,8.71,12.47,8.71c-0.321,0-0.624,0.071-0.898,0.202l-0.357-0.675l-0.076,0.044l0.36,0.67
					c-0.644,0.347-1.084,1.022-1.09,1.805h4.12C14.523,9.993,14.102,9.328,13.481,8.975z M11.406,9.962
					c-0.108,0-0.196-0.087-0.196-0.197c0-0.108,0.088-0.196,0.196-0.196c0.109,0,0.197,0.088,0.197,0.196
					C11.603,9.875,11.515,9.962,11.406,9.962z"/>
			</g>
			<g style="opacity:0.9032;">
				<path style="opacity:0.9032;fill:#6D6D6D;" d="M9.702,11.055c-0.194,0-0.347,0.156-0.347,0.35v1.682
					c0,0.19,0.153,0.347,0.347,0.347c0.194,0,0.347-0.156,0.347-0.347v-1.682C10.049,11.211,9.896,11.055,9.702,11.055z"/>
				<path style="opacity:0.9032;fill:#6D6D6D;" d="M15.164,11.055c-0.19,0-0.347,0.156-0.347,0.35v1.682
					c0,0.19,0.156,0.347,0.347,0.347c0.191,0,0.351-0.156,0.351-0.347v-1.682C15.515,11.211,15.356,11.055,15.164,11.055z"/>
				<path style="opacity:0.9032;fill:#6D6D6D;" d="M10.363,11.055c0,0.003,0,0.012,0,0.016v3.104c0,0.289,0.232,0.523,0.522,0.523
					h0.558v0.885c0,0.192,0.159,0.345,0.35,0.345c0.192,0,0.348-0.152,0.348-0.345v-0.885h0.594v0.885
					c0,0.192,0.158,0.345,0.35,0.345c0.191,0,0.348-0.152,0.348-0.345v-0.885h0.561c0.287,0,0.521-0.234,0.521-0.523V11.07
					c0-0.004,0-0.013-0.002-0.016H10.363z"/>
				<path style="opacity:0.9032;fill:#6D6D6D;" d="M13.466,9.928c-0.108,0-0.196-0.087-0.196-0.197c0-0.109,0.088-0.196,0.196-0.196
					c0.107,0,0.192,0.087,0.192,0.196C13.658,9.841,13.573,9.928,13.466,9.928z M13.451,8.939l0.371-0.692l-0.076-0.044L13.374,8.9
					c-0.284-0.146-0.599-0.224-0.934-0.224c-0.321,0-0.624,0.071-0.898,0.202l-0.358-0.675l-0.076,0.044l0.36,0.67
					c-0.645,0.347-1.085,1.022-1.09,1.805h4.119C14.492,9.958,14.071,9.293,13.451,8.939z M11.375,9.928
					c-0.108,0-0.196-0.087-0.196-0.197c0-0.109,0.088-0.196,0.196-0.196c0.109,0,0.197,0.087,0.197,0.196
					C11.573,9.841,11.484,9.928,11.375,9.928z"/>
			</g>
			<g style="opacity:0.9355;">
				<path style="opacity:0.9355;fill:#676767;" d="M9.672,11.02c-0.194,0-0.347,0.156-0.347,0.35v1.681
					c0,0.19,0.153,0.347,0.347,0.347c0.194,0,0.347-0.156,0.347-0.347V11.37C10.019,11.176,9.866,11.02,9.672,11.02z"/>
				<path style="opacity:0.9355;fill:#676767;" d="M15.134,11.02c-0.19,0-0.347,0.156-0.347,0.35v1.681
					c0,0.19,0.156,0.347,0.347,0.347c0.191,0,0.351-0.156,0.351-0.347V11.37C15.484,11.176,15.325,11.02,15.134,11.02z"/>
				<path style="opacity:0.9355;fill:#676767;" d="M10.333,11.02c0,0.003,0,0.012,0,0.016v3.104c0,0.289,0.232,0.524,0.521,0.524
					h0.559v0.885c0,0.193,0.158,0.346,0.349,0.346c0.191,0,0.348-0.152,0.348-0.346v-0.885h0.593v0.885
					c0,0.193,0.158,0.346,0.351,0.346c0.191,0,0.347-0.152,0.347-0.346v-0.885h0.561c0.287,0,0.522-0.234,0.522-0.524v-3.104
					c0-0.004,0-0.013-0.002-0.016H10.333z"/>
				<path style="opacity:0.9355;fill:#676767;" d="M13.436,9.894c-0.108,0-0.195-0.087-0.195-0.197c0-0.109,0.087-0.197,0.195-0.197
					c0.108,0,0.192,0.088,0.192,0.197C13.628,9.806,13.543,9.894,13.436,9.894z M13.421,8.905l0.371-0.692l-0.076-0.043
					l-0.372,0.697c-0.285-0.146-0.599-0.225-0.935-0.225c-0.321,0-0.623,0.071-0.898,0.202l-0.358-0.674l-0.076,0.043l0.36,0.67
					c-0.644,0.347-1.085,1.022-1.09,1.805h4.119C14.462,9.923,14.041,9.259,13.421,8.905z M11.345,9.894
					c-0.107,0-0.196-0.087-0.196-0.197c0-0.109,0.089-0.197,0.196-0.197c0.109,0,0.197,0.088,0.197,0.197
					C11.542,9.806,11.454,9.894,11.345,9.894z"/>
			</g>
			<g style="opacity:0.9677;">
				<path style="opacity:0.9677;fill:#626262;" d="M9.642,10.985c-0.194,0-0.347,0.156-0.347,0.35v1.682
					c0,0.19,0.153,0.346,0.347,0.346c0.194,0,0.347-0.155,0.347-0.346v-1.682C9.989,11.142,9.836,10.985,9.642,10.985z"/>
				<path style="opacity:0.9677;fill:#626262;" d="M15.104,10.985c-0.19,0-0.347,0.156-0.347,0.35v1.682
					c0,0.19,0.156,0.346,0.347,0.346c0.191,0,0.351-0.155,0.351-0.346v-1.682C15.454,11.142,15.295,10.985,15.104,10.985z"/>
				<path style="opacity:0.9677;fill:#626262;" d="M10.303,10.985c0,0.003,0,0.012,0,0.016v3.103c0,0.289,0.232,0.524,0.522,0.524
					h0.558v0.884c0,0.193,0.159,0.346,0.35,0.346c0.192,0,0.348-0.152,0.348-0.346v-0.884h0.594v0.884
					c0,0.193,0.158,0.346,0.35,0.346c0.191,0,0.348-0.152,0.348-0.346v-0.884h0.56c0.287,0,0.522-0.235,0.522-0.524v-3.103
					c0-0.004,0-0.013-0.002-0.016H10.303z"/>
				<path style="opacity:0.9677;fill:#626262;" d="M13.405,9.858c-0.108,0-0.196-0.087-0.196-0.197c0-0.108,0.088-0.196,0.196-0.196
					c0.107,0,0.192,0.088,0.192,0.196C13.598,9.771,13.513,9.858,13.405,9.858z M13.391,8.87l0.371-0.692l-0.076-0.044l-0.372,0.697
					c-0.284-0.146-0.599-0.224-0.935-0.224c-0.321,0-0.623,0.071-0.898,0.202l-0.358-0.675l-0.076,0.044l0.36,0.67
					c-0.644,0.347-1.084,1.022-1.09,1.805h4.119C14.432,9.889,14.011,9.224,13.391,8.87z M11.315,9.858
					c-0.107,0-0.196-0.087-0.196-0.197c0-0.108,0.089-0.196,0.196-0.196c0.109,0,0.197,0.088,0.197,0.196
					C11.512,9.771,11.424,9.858,11.315,9.858z"/>
			</g>
			<g>
				<path style="fill:#5D5D5D;" d="M9.611,10.951c-0.194,0-0.347,0.156-0.347,0.35v1.682c0,0.19,0.153,0.346,0.347,0.346
					c0.194,0,0.347-0.156,0.347-0.346V11.3C9.958,11.107,9.806,10.951,9.611,10.951z"/>
				<path style="fill:#5D5D5D;" d="M15.073,10.951c-0.19,0-0.347,0.156-0.347,0.35v1.682c0,0.19,0.156,0.346,0.347,0.346
					c0.191,0,0.351-0.156,0.351-0.346V11.3C15.424,11.107,15.265,10.951,15.073,10.951z"/>
				<path style="fill:#5D5D5D;" d="M10.273,10.951c0,0.003,0,0.012,0,0.016v3.104c0,0.289,0.232,0.523,0.522,0.523h0.559v0.885
					c0,0.193,0.158,0.346,0.349,0.346c0.192,0,0.348-0.152,0.348-0.346v-0.885h0.593v0.885c0,0.193,0.158,0.346,0.35,0.346
					c0.192,0,0.347-0.152,0.347-0.346v-0.885h0.561c0.287,0,0.522-0.234,0.522-0.523v-3.104c0-0.004,0-0.013-0.002-0.016H10.273z"/>
				<path style="fill:#5D5D5D;" d="M13.375,9.824c-0.107,0-0.195-0.087-0.195-0.197c0-0.108,0.088-0.196,0.195-0.196
					s0.192,0.088,0.192,0.196C13.567,9.737,13.482,9.824,13.375,9.824z M13.36,8.835l0.371-0.692l-0.076-0.044l-0.372,0.697
					c-0.284-0.146-0.599-0.225-0.935-0.225c-0.321,0-0.624,0.071-0.898,0.202l-0.358-0.675l-0.076,0.044l0.36,0.67
					c-0.644,0.347-1.085,1.022-1.09,1.805h4.119C14.401,9.854,13.981,9.189,13.36,8.835z M11.285,9.824
					c-0.108,0-0.196-0.087-0.196-0.197c0-0.108,0.089-0.196,0.196-0.196c0.109,0,0.197,0.088,0.197,0.196
					C11.482,9.737,11.394,9.824,11.285,9.824z"/>
			</g>
		</g>
		<g>
			<path style="fill:#FFFFFF;" d="M9.611,10.951c-0.194,0-0.347,0.156-0.347,0.35v1.682c0,0.19,0.153,0.346,0.347,0.346
				c0.194,0,0.347-0.156,0.347-0.346V11.3C9.958,11.107,9.806,10.951,9.611,10.951z"/>
			<path style="fill:#FFFFFF;" d="M15.073,10.951c-0.19,0-0.347,0.156-0.347,0.35v1.682c0,0.19,0.156,0.346,0.347,0.346
				c0.191,0,0.351-0.156,0.351-0.346V11.3C15.424,11.107,15.265,10.951,15.073,10.951z"/>
			<path style="fill:#FFFFFF;" d="M10.273,10.951c0,0.003,0,0.012,0,0.016v3.104c0,0.289,0.232,0.523,0.522,0.523h0.559v0.885
				c0,0.193,0.158,0.346,0.349,0.346c0.192,0,0.348-0.152,0.348-0.346v-0.885h0.593v0.885c0,0.193,0.158,0.346,0.35,0.346
				c0.192,0,0.347-0.152,0.347-0.346v-0.885h0.561c0.287,0,0.522-0.234,0.522-0.523v-3.104c0-0.004,0-0.013-0.002-0.016H10.273z"/>
			<path style="fill:#FFFFFF;" d="M13.36,8.835l0.371-0.692l-0.076-0.044l-0.372,0.697c-0.284-0.146-0.599-0.225-0.935-0.225
				c-0.321,0-0.624,0.071-0.898,0.202l-0.358-0.675l-0.076,0.044l0.36,0.67c-0.644,0.347-1.085,1.022-1.09,1.805h4.119
				C14.401,9.854,13.981,9.189,13.36,8.835z M11.285,9.824c-0.108,0-0.196-0.087-0.196-0.197c0-0.108,0.089-0.196,0.196-0.196
				c0.109,0,0.197,0.088,0.197,0.196C11.482,9.737,11.394,9.824,11.285,9.824z M13.375,9.824c-0.107,0-0.195-0.087-0.195-0.197
				c0-0.108,0.088-0.196,0.195-0.196s0.192,0.088,0.192,0.196C13.567,9.737,13.482,9.824,13.375,9.824z"/>
		</g>
	</g>
</g>
</svg>
